<svg width="30" height="29" viewBox="0 0 30 29" fill="none" xmlns="http://www.w3.org/2000/svg">
<path d="M29.6219 8.1017H7.21491L5.40591 0.637695H0.378906V1.7037H4.56691L9.76491 23.1467C8.65691 23.4697 7.84191 24.4807 7.84191 25.6937C7.84191 27.1657 9.03491 28.3597 10.5079 28.3597C11.9809 28.3597 13.1739 27.1657 13.1739 25.6937C13.1739 25.0907 12.9659 24.5407 12.6289 24.0947H20.1159C19.7789 24.5407 19.5709 25.0917 19.5709 25.6937C19.5709 27.1657 20.7639 28.3597 22.2359 28.3597C23.7079 28.3597 24.9019 27.1657 24.9019 25.6937C24.9019 24.2207 23.7089 23.0287 22.2359 23.0277H10.8329L10.3159 20.8947H25.2839L29.6209 8.0997L29.6219 8.1017ZM12.1069 25.6957C12.1069 26.5777 11.3899 27.2947 10.5079 27.2947C9.62591 27.2947 8.90891 26.5777 8.90891 25.6957C8.90891 24.8137 9.62591 24.0967 10.5079 24.0967C11.3899 24.0967 12.1069 24.8147 12.1069 25.6957ZM23.8359 25.6957C23.8359 26.5777 23.1179 27.2947 22.2359 27.2947C21.3539 27.2947 20.6369 26.5777 20.6369 25.6957C20.6369 24.8137 21.3539 24.0967 22.2359 24.0967C23.1179 24.0967 23.8359 24.8147 23.8359 25.6957ZM10.0579 19.8307L7.47291 9.1687H28.1349L24.5199 19.8307H10.0579Z" fill="#232324"/>
</svg>
