<svg width="34" height="30" viewBox="0 0 34 30" fill="none" xmlns="http://www.w3.org/2000/svg">
<path d="M30.7487 30H3.2487C1.6487 30 0.332031 28.6833 0.332031 27.0833V8.75C0.332031 7.15 1.6487 5.83333 3.2487 5.83333H7.43203L8.7487 2.78333C9.46536 1.08333 11.1154 0 12.9487 0H21.3154C23.2487 0 24.982 1.21667 25.632 3.03333L26.632 5.83333H30.7487C32.3487 5.83333 33.6654 7.15 33.6654 8.75V27.0833C33.6654 28.6833 32.3487 30 30.7487 30ZM3.2487 8.33333C3.01536 8.33333 2.83203 8.51667 2.83203 8.75V27.0833C2.83203 27.3167 3.01536 27.5 3.2487 27.5H30.7487C30.982 27.5 31.1654 27.3167 31.1654 27.0833V8.75C31.1654 8.51667 30.982 8.33333 30.7487 8.33333H25.7487C25.2154 8.33333 24.7487 8 24.5654 7.5L23.2654 3.88333C22.9654 3.05 22.182 2.5 21.2987 2.5H12.9487C12.1154 2.5 11.3654 3 11.032 3.76667L9.3987 7.58333C9.1987 8.03333 8.7487 8.33333 8.2487 8.33333H3.2487Z" fill="#828281"/>
<path d="M17 25C12.8667 25 9.5 21.6333 9.5 17.5C9.5 13.3667 12.8667 10 17 10C21.1333 10 24.5 13.3667 24.5 17.5C24.5 21.6333 21.1333 25 17 25ZM17 12.5C14.25 12.5 12 14.75 12 17.5C12 20.25 14.25 22.5 17 22.5C19.75 22.5 22 20.25 22 17.5C22 14.75 19.75 12.5 17 12.5Z" fill="#828281"/>
<path d="M26.9987 13.3337C26.5654 13.3337 26.132 13.1504 25.8154 12.8504C25.6654 12.6837 25.5487 12.517 25.4654 12.3004C25.382 12.1004 25.332 11.8837 25.332 11.667C25.332 11.4504 25.382 11.2337 25.4654 11.0337C25.5487 10.817 25.6654 10.6504 25.8154 10.4837C26.282 10.0337 27.0154 9.86703 27.632 10.1337C27.8487 10.217 28.0154 10.3337 28.182 10.4837C28.332 10.6504 28.4487 10.817 28.532 11.0337C28.6154 11.2337 28.6654 11.4504 28.6654 11.667C28.6654 11.8837 28.6154 12.1004 28.532 12.3004C28.4487 12.517 28.332 12.6837 28.182 12.8504C27.8654 13.1504 27.432 13.3337 26.9987 13.3337Z" fill="#828281"/>
</svg>
