<svg width="32" height="28" viewBox="0 0 32 28" fill="none" xmlns="http://www.w3.org/2000/svg">
<path d="M16.0014 27.1665C15.668 27.1665 15.3514 27.0332 15.1014 26.7999L3.31803 14.7999C0.184701 11.6332 0.201369 6.06654 3.36804 2.91654C6.51803 -0.233464 11.6514 -0.25013 14.8347 2.8832C15.3014 3.34987 15.6847 3.8332 16.0014 4.3332C16.318 3.81654 16.7014 3.34987 17.118 2.91654C18.6514 1.3832 20.6847 0.533203 22.868 0.533203C25.0347 0.533203 27.0847 1.3832 28.618 2.91654C31.8014 6.09987 31.8014 11.6665 28.618 14.8499L16.8847 26.7999C16.6514 27.0332 16.3347 27.1665 16.0014 27.1665ZM9.10137 3.04987C7.66804 3.04987 6.2347 3.5832 5.15137 4.6832C2.96803 6.86654 2.95137 10.8499 5.11803 13.0499L16.0014 24.1332L26.8514 13.0832C29.0514 10.8832 29.0514 6.8832 26.8514 4.6832C24.7347 2.56654 21.018 2.56654 18.8847 4.6832C18.318 5.24987 17.8847 5.9332 17.5847 6.71654C17.2514 7.61654 17.068 7.89987 17.068 7.89987C16.868 8.26654 16.4347 8.49987 16.0014 8.49987C15.568 8.49987 15.1514 8.26654 14.918 7.89987C14.918 7.89987 14.7514 7.61654 14.3847 6.7332C14.118 5.94987 13.7014 5.29987 13.1347 4.7332C12.0014 3.59987 10.5514 3.04987 9.10137 3.04987Z" fill="#828281"/>
</svg>
