<svg width="34" height="34" viewBox="0 0 34 34" fill="none" xmlns="http://www.w3.org/2000/svg">
<path d="M16.9992 33.6663C16.1992 33.6663 15.4492 33.3496 14.8826 32.7829L11.8992 29.7996C11.7992 29.6996 11.6826 29.6496 11.5492 29.6496H7.33255C5.68255 29.6496 4.33255 28.2996 4.33255 26.6496V22.4329C4.33255 22.2996 4.28255 22.1829 4.18255 22.0829L1.19922 19.0996C0.0325521 17.9329 0.0325521 16.0329 1.19922 14.8663L4.18255 11.8829C4.28255 11.7996 4.33255 11.6829 4.33255 11.5496V7.33294C4.33255 5.68294 5.68255 4.33294 7.33255 4.33294H11.5492C11.6826 4.33294 11.7992 4.28294 11.8992 4.18294L14.8826 1.19961C16.0159 0.066276 17.9826 0.066276 19.1159 1.19961L22.0992 4.18294C22.1992 4.28294 22.3159 4.33294 22.4492 4.33294H26.6659C28.3159 4.33294 29.6659 5.68294 29.6659 7.33294V11.5496C29.6659 11.6829 29.7159 11.7996 29.8159 11.8996L32.7992 14.8829C33.3492 15.4496 33.6659 16.1996 33.6659 16.9996C33.6659 17.7996 33.3492 18.5496 32.7825 19.1163L29.7992 22.0996C29.6992 22.1996 29.6492 22.3163 29.6492 22.4496V26.6663C29.6492 28.3163 28.2992 29.6663 26.6492 29.6663H22.4326C22.2992 29.6663 22.1826 29.7163 22.0826 29.8163L19.0992 32.7996C18.5492 33.3496 17.7992 33.6663 16.9992 33.6663ZM7.33255 6.83294C7.06589 6.83294 6.83255 7.04961 6.83255 7.33294V11.5496C6.83255 12.3496 6.51589 13.0996 5.94922 13.6663L2.96589 16.6496C2.76589 16.8496 2.76589 17.1496 2.96589 17.3496L5.96589 20.3329C6.51589 20.8829 6.84922 21.6663 6.84922 22.4496V26.6663C6.84922 26.9329 7.06589 27.1663 7.34922 27.1663H11.5659C12.3659 27.1663 13.1159 27.4829 13.6826 28.0496L16.6659 31.0329C16.7992 31.1663 16.9326 31.1829 17.0159 31.1829C17.0826 31.1829 17.2326 31.1663 17.3659 31.0329L20.3326 28.0329C20.8826 27.4829 21.6659 27.1496 22.4492 27.1496H26.6659C26.9326 27.1496 27.1659 26.9329 27.1659 26.6496V22.4329C27.1659 21.6496 27.4825 20.8663 28.0492 20.3163L31.0326 17.3329C31.1659 17.1996 31.1826 17.0663 31.1826 16.9829C31.1826 16.8996 31.1659 16.7663 31.0326 16.6329L28.0326 13.6663C27.4659 13.0996 27.1492 12.3496 27.1492 11.5496V7.33294C27.1492 7.06628 26.9326 6.83294 26.6492 6.83294H22.4326C21.6492 6.83294 20.8659 6.51628 20.3159 5.94961L17.3326 2.96628C17.0826 2.71628 16.8826 2.71628 16.6326 2.96628L13.6659 5.96628C13.0992 6.53294 12.3492 6.83294 11.5492 6.83294H7.33255Z" fill="#828281"/>
<path d="M11.5818 23.6661C11.2651 23.6661 10.9484 23.5494 10.6984 23.2994C10.2151 22.8161 10.2151 22.0161 10.6984 21.5327L21.5318 10.6994C22.0151 10.2161 22.8151 10.2161 23.2984 10.6994C23.7818 11.1827 23.7818 11.9827 23.2984 12.4661L12.4651 23.2994C12.2151 23.5494 11.8984 23.6661 11.5818 23.6661Z" fill="#828281"/>
<path d="M11.9987 13.6663C11.782 13.6663 11.5654 13.6163 11.3654 13.533C11.1654 13.4497 10.982 13.333 10.8154 13.183C10.6654 13.0163 10.5487 12.8497 10.4654 12.633C10.3654 12.433 10.332 12.2163 10.332 11.9997C10.332 11.783 10.3654 11.5663 10.4654 11.3663C10.5487 11.1497 10.6654 10.983 10.8154 10.8163C10.982 10.6663 11.1654 10.5497 11.3654 10.4663C11.6654 10.333 11.9987 10.2997 12.332 10.3663C12.432 10.383 12.532 10.4163 12.632 10.4663C12.732 10.4997 12.832 10.5497 12.932 10.6163C13.0154 10.683 13.0987 10.7497 13.182 10.8163C13.332 10.983 13.4487 11.1663 13.532 11.3663C13.632 11.5663 13.6654 11.783 13.6654 11.9997C13.6654 12.433 13.482 12.8663 13.182 13.183C13.0987 13.2497 13.0154 13.3163 12.932 13.383C12.832 13.4497 12.732 13.4997 12.632 13.533C12.532 13.583 12.432 13.6163 12.332 13.633C12.2154 13.6497 12.1154 13.6663 11.9987 13.6663Z" fill="#828281"/>
<path d="M21.9987 23.6663C21.5487 23.6663 21.132 23.4997 20.8154 23.183C20.6654 23.0163 20.5487 22.833 20.4654 22.633C20.382 22.433 20.332 22.2163 20.332 21.9997C20.332 21.8997 20.3487 21.783 20.3654 21.683C20.382 21.5663 20.4154 21.4663 20.4654 21.3663C20.4987 21.2663 20.5487 21.1663 20.6154 21.083C20.682 20.983 20.7487 20.8997 20.8154 20.8163C20.8987 20.7497 20.982 20.683 21.082 20.6163C21.1654 20.5497 21.2654 20.4997 21.3654 20.4663C21.4654 20.4163 21.5654 20.383 21.682 20.3663C21.9987 20.2997 22.332 20.333 22.632 20.4663C22.8487 20.5497 23.0154 20.6663 23.182 20.8163C23.2487 20.8997 23.3154 20.983 23.382 21.083C23.4487 21.1663 23.4987 21.2663 23.532 21.3663C23.582 21.4663 23.6154 21.5663 23.632 21.683C23.6487 21.783 23.6654 21.8997 23.6654 21.9997C23.6654 22.2163 23.6154 22.433 23.532 22.633C23.4487 22.833 23.332 23.0163 23.182 23.183C22.8654 23.4997 22.4487 23.6663 21.9987 23.6663Z" fill="#828281"/>
</svg>
