<svg width="34" height="34" viewBox="0 0 34 34" fill="none" xmlns="http://www.w3.org/2000/svg">
<path d="M28.7815 5.21634C25.6315 2.06634 21.4482 0.333008 16.9982 0.333008C12.5482 0.333008 8.36484 2.06634 5.21484 5.21634C-1.28516 11.7163 -1.28516 22.283 5.21484 28.783C8.46484 32.033 12.7315 33.6663 16.9982 33.6663C21.2648 33.6663 25.5315 32.033 28.7815 28.783C35.2815 22.283 35.2815 11.7163 28.7815 5.21634ZM27.0148 27.0163C21.4982 32.533 12.4982 32.5497 6.98151 27.0163C1.44818 21.4997 1.44818 12.4997 6.98151 6.98301C9.64818 4.29967 13.2148 2.83301 16.9982 2.83301C20.7815 2.83301 24.3315 4.29967 27.0148 6.98301C32.5315 12.4997 32.5315 21.4997 27.0148 27.0163Z" fill="#828281"/>
<path d="M24.9667 24.9667C24.7167 25.2167 24.4 25.3334 24.0833 25.3334C23.7667 25.3334 23.45 25.2167 23.2 24.9667L16.1167 17.8834C16 17.7667 15.9167 17.6334 15.85 17.4834C15.7833 17.3334 15.75 17.1667 15.75 17.0001V9.9834C15.75 9.30007 16.3167 8.7334 17 8.7334C17.7 8.7334 18.25 9.30007 18.25 9.9834V16.4834L24.9667 23.2001C25.45 23.7001 25.45 24.4834 24.9667 24.9667Z" fill="#828281"/>
</svg>
