<svg width="27" height="24" viewBox="0 0 27 24" fill="none" xmlns="http://www.w3.org/2000/svg">
<path d="M25.7299 2.74562C24.5731 1.22668 22.7537 0.3534 20.1647 0.0756663C19.955 0.0543733 19.7339 0.0411478 19.5063 0.0411478C17.2108 0.0411478 14.9231 1.11796 13.4998 2.82894C12.075 1.11783 9.78943 0.0410156 7.49481 0.0410156C7.2672 0.0410156 7.04753 0.0538443 6.83354 0.075534C4.24823 0.3534 2.42973 1.22668 1.27211 2.74509C0.124803 4.25067 -0.24908 6.29123 0.161173 8.81067C0.760814 12.4661 5.49354 16.9163 9.29572 20.4936L9.38288 20.5755C10.4417 21.5723 11.3566 22.4338 11.9526 23.0746C12.033 23.165 12.7591 23.9596 13.5538 23.9596C14.3537 23.9596 15.0637 23.1526 15.1285 23.075C15.7619 22.3887 16.7899 21.415 17.8042 20.4561C21.5638 16.8892 26.2439 12.4499 26.837 8.80908C27.2497 6.29162 26.8776 4.25213 25.7299 2.74562ZM25.8808 8.65302C25.3403 11.9723 20.7922 16.2871 17.1187 19.7709C16.1129 20.7232 15.0721 21.7072 14.4038 22.4323C14.2377 22.6278 13.8188 22.9914 13.5537 22.9914C13.2967 22.9914 12.8782 22.6572 12.6699 22.4244C12.0437 21.7514 11.1185 20.8795 10.0463 19.8704L9.95911 19.7881C6.26299 16.3115 1.66319 11.9849 1.11605 8.65421C0.75116 6.40827 1.06209 4.61781 2.04236 3.33177C3.02871 2.03673 4.63045 1.28659 6.93366 1.03848C7.11445 1.02049 7.3 1.00912 7.49455 1.00912C9.70637 1.00912 11.9063 2.14558 13.0982 3.90536L13.4996 4.49561L13.9004 3.90536C15.0923 2.14558 17.2927 1.00912 19.5064 1.00912C19.7 1.00912 19.8869 1.02049 20.0644 1.03848C22.3709 1.28606 23.9721 2.03621 24.9599 3.33217C25.939 4.619 26.2495 6.40906 25.8808 8.65302Z" fill="#232324"/>
</svg>
