<svg width="61" height="19" viewBox="0 0 61 19" fill="none" xmlns="http://www.w3.org/2000/svg">
<path fill-rule="evenodd" clip-rule="evenodd" d="M10.7715 2.77776C11.2318 2.77504 12.5995 2.65337 13.1789 4.58456C13.5691 5.88543 14.1908 8.01631 15.0439 10.9772H15.3913C16.3061 7.85562 16.9346 5.72474 17.2766 4.58456C17.862 2.63326 19.3255 2.7778 19.9109 2.7778H24.4273V16.6537H19.824V8.4764H19.5154L16.9493 16.6537H13.4859L10.9198 8.47034H10.6111V16.6537H6.00781V2.7778L10.7715 2.77776ZM31.0375 2.7778V10.9612H31.4047L34.5262 4.23205C35.1321 2.89293 36.4235 2.7778 36.4235 2.7778H40.8781V16.6537H36.1787V8.47034H35.8114L32.7512 15.1995C32.1453 16.5325 30.7927 16.6537 30.7927 16.6537H26.3381V2.7778H31.0375ZM57.1213 9.37174C56.4658 11.2064 54.4072 12.5203 52.1281 12.5203H47.1998V16.6537H42.731V9.37174H57.1213Z" fill="#D6D6D6"/>
<path fill-rule="evenodd" clip-rule="evenodd" d="M52.3431 2.77783H42.4961C42.7305 5.86709 45.4241 8.51169 48.2126 8.51169H57.4313C57.9633 5.94415 56.1319 2.77783 52.3431 2.77783Z" fill="#828281"/>
</svg>
