<svg width="25" height="25" viewBox="0 0 25 25" fill="none" xmlns="http://www.w3.org/2000/svg">
<path d="M24.9828 20.5766C24.9034 19.9758 24.5566 19.4579 24.0315 19.1555L17.8639 15.6045C17.1085 15.1695 16.1502 15.2962 15.5336 15.9127L14.3188 17.1275C13.9955 17.4508 13.4841 17.4794 13.1294 17.194C12.1717 16.4234 11.2287 15.5753 10.3268 14.6732C9.42477 13.7712 8.57668 12.8283 7.80602 11.8706C7.52055 11.5158 7.54911 11.0045 7.87248 10.6811L9.08725 9.46631C9.70376 8.84985 9.83054 7.89166 9.39551 7.13612L5.84444 0.968526C5.54208 0.443375 5.02416 0.0966212 4.42341 0.0171411C3.82262 -0.062501 3.23229 0.137873 2.80379 0.566374L0.973319 2.3969C-0.304247 3.67452 -0.324766 6.01152 0.915545 8.9775C2.10818 11.8294 4.33384 14.9688 7.18243 17.8176C10.0311 20.6662 13.1706 22.8919 16.0225 24.0845C17.4825 24.695 18.7899 25.0001 19.8938 25C21.0324 25 21.9544 24.6754 22.6031 24.0267L24.4336 22.1961C24.8621 21.7676 25.0623 21.1773 24.9828 20.5766ZM17.4598 16.3063L23.6274 19.8574C23.9324 20.033 24.1338 20.3339 24.1799 20.6828C24.2187 20.9756 24.1426 21.2639 23.9701 21.4963L15.7735 16.8183L16.1063 16.4854C16.4644 16.1274 17.0211 16.0538 17.4598 16.3063ZM4.31715 0.820095C4.66612 0.866261 4.96692 1.06766 5.14251 1.37268L8.69358 7.54027C8.94627 7.97908 8.87263 8.53566 8.51459 8.89364L8.20882 9.19941L3.50513 1.02986C3.6974 0.887481 3.92737 0.81016 4.1671 0.81016C4.21683 0.81016 4.26699 0.813454 4.31715 0.820095ZM22.0304 23.4539C21.0154 24.4689 18.9395 24.4264 16.335 23.3372C13.578 22.1843 10.5311 20.0206 7.75521 17.2448C4.97934 14.469 2.81567 11.4219 1.66278 8.66503C0.573543 6.06049 0.531049 3.98461 1.54604 2.96957L2.90492 1.61063L7.61568 9.79254L7.29976 10.1085C6.68341 10.7249 6.62974 11.7007 7.17498 12.3784C7.96379 13.3587 8.83154 14.3235 9.75398 15.2459C10.6765 16.1684 11.6413 17.0362 12.6216 17.825C13.2992 18.3702 14.275 18.3166 14.8915 17.7002L15.1797 17.4119L23.3878 22.0965L22.0304 23.4539Z" fill="black"/>
</svg>
