<svg width="18" height="18" viewBox="0 0 18 18" fill="none" xmlns="http://www.w3.org/2000/svg">
<path d="M6.75 0C3.02741 0 0 3.02741 0 6.75C0 10.4726 3.02741 13.5 6.75 13.5C8.44962 13.5 9.99889 12.8632 11.1867 11.823L17.2318 17.8682C17.2726 17.9141 17.3224 17.9513 17.3781 17.9773C17.4337 18.0033 17.4941 18.0177 17.5556 18.0196C17.617 18.0214 17.6781 18.0106 17.7353 17.988C17.7924 17.9653 17.8443 17.9312 17.8877 17.8877C17.9312 17.8443 17.9653 17.7924 17.988 17.7353C18.0106 17.6781 18.0214 17.617 18.0196 17.5556C18.0177 17.4941 18.0033 17.4337 17.9773 17.3781C17.9513 17.3224 17.9141 17.2726 17.8682 17.2318L11.823 11.1867C12.8632 9.99889 13.5 8.44962 13.5 6.75C13.5 3.02741 10.4726 0 6.75 0ZM6.75 0.9C9.9862 0.9 12.6 3.5138 12.6 6.75C12.6 9.9862 9.9862 12.6 6.75 12.6C3.5138 12.6 0.9 9.9862 0.9 6.75C0.9 3.5138 3.5138 0.9 6.75 0.9Z" fill="#F07591"/>
</svg>
