<svg width="241" height="54" viewBox="0 0 241 54" fill="none" xmlns="http://www.w3.org/2000/svg">
<g clip-path="url(#clip0_664_6)">
<path d="M17.019 25.43C18.4243 25.8227 19.5093 26.5047 20.274 27.476C21.0593 28.4267 21.452 29.5943 21.452 30.979C21.452 32.6117 20.987 34.1307 20.057 35.536C19.127 36.9413 17.8043 38.0677 16.089 38.915C14.3943 39.7417 12.4413 40.155 10.23 40.155C7.60533 40.155 5.53867 39.5867 4.03 38.45C2.542 37.3133 1.798 35.7323 1.798 33.707C1.798 32.6737 1.984 31.909 2.356 31.413C2.74867 30.917 3.33767 30.669 4.123 30.669C4.70167 30.669 5.15633 30.8343 5.487 31.165C5.83833 31.475 6.014 31.9297 6.014 32.529C6.014 33.6037 6.14833 34.451 6.417 35.071C6.70633 35.6703 7.161 36.1147 7.781 36.404C8.42167 36.6727 9.31033 36.807 10.447 36.807C11.687 36.807 12.7927 36.528 13.764 35.97C14.756 35.412 15.5207 34.6783 16.058 33.769C16.616 32.8597 16.895 31.8883 16.895 30.855C16.895 29.987 16.6883 29.2637 16.275 28.685C15.8617 28.0857 15.3243 27.7343 14.663 27.631C13.0717 28.5403 11.4597 28.995 9.827 28.995C9.145 28.995 8.65933 28.8813 8.37 28.654C8.08067 28.4267 7.936 28.0547 7.936 27.538C7.936 26.794 8.32867 26.2257 9.114 25.833C9.92 25.4403 11.1807 25.2027 12.896 25.12C15.004 23.7973 16.058 22.0613 16.058 19.912C16.058 19.0027 15.7997 18.3 15.283 17.804C14.7663 17.2873 13.9913 17.029 12.958 17.029C11.9867 17.029 11.129 17.184 10.385 17.494C9.641 17.7833 9.06233 18.1863 8.649 18.703C8.23567 19.199 8.029 19.7363 8.029 20.315C8.029 20.4803 8.04967 20.6973 8.091 20.966C8.13233 21.2347 8.153 21.4413 8.153 21.586C8.153 22.1027 7.98767 22.4953 7.657 22.764C7.347 23.012 6.92333 23.136 6.386 23.136C5.60067 23.136 5.03233 22.857 4.681 22.299C4.32967 21.7203 4.154 20.9557 4.154 20.005C4.154 18.8683 4.526 17.8247 5.27 16.874C6.03467 15.9027 7.11967 15.138 8.525 14.58C9.93033 14.0013 11.5527 13.712 13.392 13.712C15.7687 13.712 17.5047 14.1873 18.6 15.138C19.6953 16.0887 20.243 17.3907 20.243 19.044C20.243 20.284 19.964 21.462 19.406 22.578C18.8687 23.6733 18.073 24.624 17.019 25.43ZM27.7639 40.155C26.4826 40.155 25.4596 39.69 24.6949 38.76C23.9302 37.83 23.5479 36.6107 23.5479 35.102C23.5479 33.4487 23.9302 31.8883 24.6949 30.421C25.4596 28.933 26.4722 27.7447 27.7329 26.856C29.0142 25.9467 30.3679 25.492 31.7939 25.492C32.2486 25.492 32.5482 25.585 32.6929 25.771C32.8582 25.9363 32.9926 26.2463 33.0959 26.701C33.5299 26.6183 33.9846 26.577 34.4599 26.577C35.4726 26.577 35.9789 26.9387 35.9789 27.662C35.9789 28.096 35.8239 29.1293 35.5139 30.762C35.0386 33.1387 34.8009 34.792 34.8009 35.722C34.8009 36.032 34.8732 36.28 35.0179 36.466C35.1832 36.652 35.3899 36.745 35.6379 36.745C36.0306 36.745 36.5059 36.497 37.0639 36.001C37.6219 35.4843 38.3762 34.6577 39.3269 33.521C39.5749 33.2317 39.8539 33.087 40.1639 33.087C40.4326 33.087 40.6392 33.211 40.7839 33.459C40.9492 33.707 41.0319 34.048 41.0319 34.482C41.0319 35.3087 40.8356 35.9493 40.4429 36.404C39.5956 37.458 38.6966 38.3467 37.7459 39.07C36.7952 39.7933 35.8756 40.155 34.9869 40.155C34.3049 40.155 33.6746 39.9277 33.0959 39.473C32.5379 38.9977 32.1142 38.357 31.8249 37.551C30.7502 39.287 29.3966 40.155 27.7639 40.155ZM28.8799 37.024C29.3346 37.024 29.7686 36.7553 30.1819 36.218C30.5952 35.6807 30.8949 34.9677 31.0809 34.079L32.2279 28.375C31.3599 28.3957 30.5539 28.7263 29.8099 29.367C29.0866 29.987 28.5079 30.8137 28.0739 31.847C27.6399 32.8803 27.4229 33.9757 27.4229 35.133C27.4229 35.7737 27.5469 36.249 27.7949 36.559C28.0636 36.869 28.4252 37.024 28.8799 37.024ZM41.6744 40.155C40.7444 40.155 39.9797 39.7313 39.3804 38.884C38.8017 38.016 38.5124 36.9413 38.5124 35.66C38.5124 34.11 38.6157 32.6943 38.8224 31.413C39.0291 30.111 39.3701 28.7367 39.8454 27.29C40.0521 26.67 40.3414 26.2257 40.7134 25.957C41.0854 25.6883 41.6744 25.554 42.4804 25.554C42.9351 25.554 43.2451 25.6263 43.4104 25.771C43.5964 25.9157 43.6894 26.1327 43.6894 26.422C43.6894 26.5873 43.5757 27.1453 43.3484 28.096C43.1417 28.8607 42.9764 29.553 42.8524 30.173C42.4391 32.343 42.2324 33.7897 42.2324 34.513C42.2324 34.947 42.2841 35.257 42.3874 35.443C42.4907 35.6083 42.6561 35.691 42.8834 35.691C43.1934 35.691 43.5757 35.381 44.0304 34.761C44.5057 34.141 45.0017 33.2007 45.5184 31.94C46.0557 30.6793 46.5724 29.1293 47.0684 27.29C47.2337 26.67 47.4817 26.2257 47.8124 25.957C48.1637 25.6883 48.6804 25.554 49.3624 25.554C49.8377 25.554 50.1684 25.616 50.3544 25.74C50.5404 25.8433 50.6334 26.05 50.6334 26.36C50.6334 26.8767 50.3751 28.2923 49.8584 30.607C49.2797 33.2523 48.9904 34.885 48.9904 35.505C48.9904 35.8977 49.0731 36.2077 49.2384 36.435C49.4037 36.6417 49.6207 36.745 49.8894 36.745C50.3027 36.745 50.7884 36.497 51.3464 36.001C51.9251 35.4843 52.6897 34.6577 53.6404 33.521C53.8884 33.2317 54.1674 33.087 54.4774 33.087C54.7461 33.087 54.9527 33.211 55.0974 33.459C55.2627 33.707 55.3454 34.048 55.3454 34.482C55.3454 35.3087 55.1491 35.9493 54.7564 36.404C53.8677 37.4993 52.9067 38.3983 51.8734 39.101C50.8607 39.8037 49.7034 40.155 48.4014 40.155C47.4094 40.155 46.6757 39.7727 46.2004 39.008C45.7457 38.2433 45.5184 37.1687 45.5184 35.784C45.1671 37.1893 44.6401 38.2743 43.9374 39.039C43.2347 39.783 42.4804 40.155 41.6744 40.155ZM45.0224 23.508C44.0717 23.508 43.2347 23.3117 42.5114 22.919C41.7881 22.5263 41.2301 22.0097 40.8374 21.369C40.4447 20.7283 40.2484 20.0463 40.2484 19.323C40.2484 18.8063 40.4137 18.393 40.7444 18.083C41.0751 17.7523 41.4987 17.587 42.0154 17.587C42.5527 17.587 42.9454 17.711 43.1934 17.959C43.4414 18.207 43.6377 18.6307 43.7824 19.23C43.9891 20.098 44.5574 20.532 45.4874 20.532C46.4587 20.532 47.2957 20.2633 47.9984 19.726C48.7011 19.168 49.2074 18.4963 49.5174 17.711C49.6827 17.2977 49.8687 17.0083 50.0754 16.843C50.2821 16.657 50.5507 16.564 50.8814 16.564C51.1914 16.564 51.4497 16.688 51.6564 16.936C51.8837 17.1633 51.9974 17.4527 51.9974 17.804L51.9354 18.176C51.7287 19.0233 51.3464 19.85 50.7884 20.656C50.2304 21.462 49.4657 22.144 48.4944 22.702C47.5231 23.2393 46.3657 23.508 45.0224 23.508ZM57.6569 44.898C57.2022 44.898 56.8405 44.7947 56.5719 44.588C56.3032 44.3813 56.1689 44.0507 56.1689 43.596C56.1689 43.41 56.1999 43.193 56.2619 42.945C56.4892 41.9943 56.6545 41.116 56.7579 40.31C56.8819 39.504 56.9439 38.605 56.9439 37.613C56.9439 36.5797 57.1815 35.784 57.6569 35.226C58.1529 34.668 58.7832 34.389 59.5479 34.389C60.2919 34.389 60.8499 34.5957 61.2219 35.009C61.6145 35.4017 61.8109 35.939 61.8109 36.621C61.8109 37.3443 61.5939 38.3053 61.1599 39.504C60.7259 40.7027 60.1989 41.8703 59.5789 43.007C59.1655 43.7717 58.8349 44.278 58.5869 44.526C58.3595 44.774 58.0495 44.898 57.6569 44.898ZM75.5279 40.155C74.7425 40.155 74.1845 39.7417 73.8539 38.915C73.5439 38.0883 73.3889 36.7657 73.3889 34.947C73.3889 32.2603 73.7712 29.708 74.5359 27.29C74.7219 26.6907 75.0215 26.2567 75.4349 25.988C75.8689 25.6987 76.4682 25.554 77.2329 25.554C77.6462 25.554 77.9355 25.6057 78.1009 25.709C78.2662 25.8123 78.3489 26.0087 78.3489 26.298C78.3489 26.6287 78.1939 27.3727 77.8839 28.53C77.8425 28.6747 77.7495 29.0053 77.6049 29.522C77.4809 30.0387 77.3569 30.6483 77.2329 31.351C77.1295 32.033 77.0572 32.7873 77.0159 33.614C77.7599 30.7207 78.7002 28.654 79.8369 27.414C80.9735 26.174 82.3479 25.554 83.9599 25.554C85.0345 25.554 85.8715 25.895 86.4709 26.577C87.0909 27.2383 87.4009 28.096 87.4009 29.15C87.4009 30.018 87.2045 30.7517 86.8119 31.351C86.4399 31.9503 85.9439 32.25 85.3239 32.25C84.9312 32.25 84.6109 32.157 84.3629 31.971C84.1355 31.785 84.0219 31.5267 84.0219 31.196C84.0219 31.0513 84.0425 30.886 84.0839 30.7C84.1252 30.514 84.1562 30.3797 84.1769 30.297C84.2802 29.987 84.3319 29.6977 84.3319 29.429C84.3319 28.871 84.0632 28.592 83.5259 28.592C83.1125 28.592 82.7095 28.809 82.3169 29.243C81.9242 29.6563 81.6039 30.2247 81.3559 30.948C81.1285 31.6507 81.0149 32.4153 81.0149 33.242C81.0149 34.358 81.2732 35.257 81.7899 35.939C82.3065 36.6003 83.0505 36.931 84.0219 36.931C84.7865 36.931 85.4685 36.683 86.0679 36.187C86.6672 35.6703 87.4939 34.7817 88.5479 33.521C88.7959 33.2317 89.0749 33.087 89.3849 33.087C89.6535 33.087 89.8602 33.211 90.0049 33.459C90.1702 33.707 90.2529 34.048 90.2529 34.482C90.2529 35.3087 90.0565 35.9493 89.6639 36.404C88.7339 37.52 87.8039 38.4293 86.8739 39.132C85.9439 39.814 84.8899 40.155 83.7119 40.155C82.7405 40.155 81.8519 39.9483 81.0459 39.535C80.2605 39.101 79.6199 38.5843 79.1239 37.985C78.6279 37.3857 78.3075 36.807 78.1629 36.249C78.1215 36.4143 77.9665 36.993 77.6979 37.985C77.4705 38.8117 77.2019 39.38 76.8919 39.69C76.6025 40 76.1479 40.155 75.5279 40.155ZM103.609 33.149C103.878 33.149 104.084 33.2833 104.229 33.552C104.394 33.8 104.477 34.1203 104.477 34.513C104.477 34.9883 104.405 35.3603 104.26 35.629C104.115 35.8977 103.888 36.1353 103.578 36.342L97.626 40.341C96.8407 44.619 95.8074 47.9773 94.526 50.416C93.2654 52.8753 91.6534 54.105 89.69 54.105C88.636 54.105 87.7784 53.7743 87.117 53.113C86.4557 52.4723 86.125 51.625 86.125 50.571C86.125 49.5997 86.342 48.6077 86.776 47.595C87.2307 46.5823 88.0574 45.4147 89.256 44.092C90.4754 42.79 92.1907 41.2917 94.402 39.597L94.495 38.884C94.6397 38.1193 94.805 37.024 94.991 35.598C94.5777 37.086 93.999 38.2227 93.255 39.008C92.511 39.7727 91.7257 40.155 90.899 40.155C89.969 40.155 89.2044 39.7313 88.605 38.884C88.0264 38.016 87.737 36.9413 87.737 35.66C87.737 34.11 87.8404 32.6943 88.047 31.413C88.2537 30.111 88.5947 28.7367 89.07 27.29C89.2767 26.67 89.566 26.2257 89.938 25.957C90.31 25.6883 90.899 25.554 91.705 25.554C92.1597 25.554 92.4697 25.6263 92.635 25.771C92.821 25.9157 92.914 26.1327 92.914 26.422C92.914 26.5873 92.8004 27.1453 92.573 28.096C92.3664 28.8607 92.201 29.553 92.077 30.173C91.9117 31.0203 91.767 31.8367 91.643 32.622C91.519 33.3867 91.457 34.017 91.457 34.513C91.457 35.2983 91.674 35.691 92.108 35.691C92.418 35.691 92.8004 35.381 93.255 34.761C93.7304 34.141 94.2264 33.2007 94.743 31.94C95.2804 30.6793 95.797 29.1293 96.293 27.29C96.4584 26.67 96.7064 26.2257 97.037 25.957C97.3884 25.6883 97.905 25.554 98.587 25.554C99.0624 25.554 99.393 25.616 99.579 25.74C99.765 25.864 99.858 26.0707 99.858 26.36C99.858 26.8767 99.5894 28.654 99.052 31.692L98.246 36.683C99.8374 35.4843 101.387 34.389 102.896 33.397C103.165 33.2317 103.402 33.149 103.609 33.149ZM90.031 51.098C90.5477 51.098 91.1264 50.4987 91.767 49.3C92.4077 48.1013 93.0484 46.107 93.689 43.317C92.0977 44.6603 90.9404 45.8797 90.217 46.975C89.5144 48.091 89.163 49.0623 89.163 49.889C89.163 50.2403 89.225 50.5297 89.349 50.757C89.4937 50.9843 89.721 51.098 90.031 51.098ZM104.439 40.155C103.654 40.155 103.096 39.7417 102.765 38.915C102.455 38.0883 102.3 36.7657 102.3 34.947C102.3 32.2603 102.682 29.708 103.447 27.29C103.633 26.6907 103.933 26.2567 104.346 25.988C104.78 25.6987 105.379 25.554 106.144 25.554C106.557 25.554 106.847 25.6057 107.012 25.709C107.177 25.8123 107.26 26.0087 107.26 26.298C107.26 26.6287 107.105 27.3727 106.795 28.53C106.588 29.3567 106.423 30.08 106.299 30.7C106.175 31.32 106.072 32.0847 105.989 32.994C106.671 31.2167 107.436 29.77 108.283 28.654C109.13 27.538 109.957 26.7423 110.763 26.267C111.59 25.7917 112.344 25.554 113.026 25.554C114.369 25.554 115.041 26.2257 115.041 27.569C115.041 28.375 114.814 29.832 114.359 31.94C113.966 33.738 113.77 34.9263 113.77 35.505C113.77 36.3317 114.07 36.745 114.669 36.745C115.082 36.745 115.568 36.497 116.126 36.001C116.705 35.4843 117.469 34.6577 118.42 33.521C118.668 33.2317 118.947 33.087 119.257 33.087C119.526 33.087 119.732 33.211 119.877 33.459C120.042 33.707 120.125 34.048 120.125 34.482C120.125 35.3087 119.929 35.9493 119.536 36.404C118.647 37.4993 117.686 38.3983 116.653 39.101C115.64 39.8037 114.483 40.155 113.181 40.155C112.127 40.155 111.331 39.8553 110.794 39.256C110.257 38.636 109.988 37.7473 109.988 36.59C109.988 36.0113 110.133 34.978 110.422 33.49C110.691 32.188 110.825 31.289 110.825 30.793C110.825 30.4623 110.711 30.297 110.484 30.297C110.215 30.297 109.833 30.6483 109.337 31.351C108.862 32.033 108.366 32.9423 107.849 34.079C107.353 35.2157 106.95 36.4143 106.64 37.675C106.413 38.6463 106.144 39.3077 105.834 39.659C105.545 39.9897 105.08 40.155 104.439 40.155ZM120.779 40.155C119.849 40.155 119.084 39.7313 118.485 38.884C117.906 38.016 117.617 36.9413 117.617 35.66C117.617 34.11 117.72 32.6943 117.927 31.413C118.134 30.111 118.475 28.7367 118.95 27.29C119.157 26.67 119.446 26.2257 119.818 25.957C120.19 25.6883 120.779 25.554 121.585 25.554C122.04 25.554 122.35 25.6263 122.515 25.771C122.701 25.9157 122.794 26.1327 122.794 26.422C122.794 26.5873 122.68 27.1453 122.453 28.096C122.246 28.8607 122.081 29.553 121.957 30.173C121.544 32.343 121.337 33.7897 121.337 34.513C121.337 34.947 121.389 35.257 121.492 35.443C121.595 35.6083 121.761 35.691 121.988 35.691C122.298 35.691 122.68 35.381 123.135 34.761C123.61 34.141 124.106 33.2007 124.623 31.94C125.16 30.6793 125.677 29.1293 126.173 27.29C126.338 26.67 126.586 26.2257 126.917 25.957C127.268 25.6883 127.785 25.554 128.467 25.554C128.942 25.554 129.273 25.616 129.459 25.74C129.645 25.8433 129.738 26.05 129.738 26.36C129.738 26.8767 129.48 28.2923 128.963 30.607C128.384 33.2523 128.095 34.885 128.095 35.505C128.095 35.8977 128.178 36.2077 128.343 36.435C128.508 36.6417 128.725 36.745 128.994 36.745C129.407 36.745 129.893 36.497 130.451 36.001C131.03 35.4843 131.794 34.6577 132.745 33.521C132.993 33.2317 133.272 33.087 133.582 33.087C133.851 33.087 134.057 33.211 134.202 33.459C134.367 33.707 134.45 34.048 134.45 34.482C134.45 35.3087 134.254 35.9493 133.861 36.404C132.972 37.4993 132.011 38.3983 130.978 39.101C129.965 39.8037 128.808 40.155 127.506 40.155C126.514 40.155 125.78 39.7727 125.305 39.008C124.85 38.2433 124.623 37.1687 124.623 35.784C124.272 37.1893 123.745 38.2743 123.042 39.039C122.339 39.783 121.585 40.155 120.779 40.155ZM156.477 37.644C155.547 38.2847 154.059 39.2147 152.013 40.434C151.745 41.674 151.486 42.7487 151.238 43.658C150.722 45.518 149.957 46.944 148.944 47.936C147.932 48.928 146.774 49.424 145.472 49.424C144.604 49.424 143.881 49.1347 143.302 48.556C142.744 47.9773 142.465 47.254 142.465 46.386C142.465 45.642 142.641 44.929 142.992 44.247C143.364 43.5857 144.026 42.8417 144.976 42.015C145.948 41.1883 147.312 40.248 149.068 39.194V39.132C148.469 39.0287 147.994 38.6877 147.642 38.109C147.312 37.5097 147.146 36.7347 147.146 35.784C146.816 37.1273 146.299 38.1917 145.596 38.977C144.914 39.7623 144.15 40.155 143.302 40.155C142.393 40.155 141.639 39.7313 141.039 38.884C140.44 38.0367 140.14 36.962 140.14 35.66C140.14 34.1307 140.244 32.7253 140.45 31.444C140.657 30.142 140.998 28.7573 141.473 27.29C141.68 26.6493 141.969 26.205 142.341 25.957C142.734 25.6883 143.323 25.554 144.108 25.554C144.542 25.554 144.852 25.6263 145.038 25.771C145.224 25.895 145.317 26.112 145.317 26.422C145.317 26.5873 145.204 27.1453 144.976 28.096C144.77 28.8607 144.604 29.553 144.48 30.173C144.067 32.3637 143.86 33.8103 143.86 34.513C143.86 34.9263 143.912 35.226 144.015 35.412C144.119 35.598 144.284 35.691 144.511 35.691C145.069 35.691 145.741 34.9057 146.526 33.335C147.312 31.7643 148.035 29.7493 148.696 27.29C148.862 26.6493 149.12 26.205 149.471 25.957C149.823 25.6883 150.329 25.554 150.99 25.554C151.466 25.554 151.796 25.616 151.982 25.74C152.168 25.8433 152.261 26.05 152.261 26.36C152.261 26.856 152.003 28.22 151.486 30.452C151.259 31.382 151.052 32.3017 150.866 33.211C150.68 34.1203 150.587 34.7713 150.587 35.164C150.587 35.5567 150.639 35.8357 150.742 36.001C150.846 36.1457 151.001 36.218 151.207 36.218C151.29 36.218 151.383 36.2077 151.486 36.187C151.59 36.1663 151.693 36.156 151.796 36.156C151.941 36.156 152.044 36.2283 152.106 36.373C152.189 36.5177 152.22 36.807 152.199 37.241C153.522 36.4143 154.721 35.598 155.795 34.792C156.023 34.6267 156.26 34.544 156.508 34.544C156.777 34.544 156.984 34.668 157.128 34.916C157.294 35.164 157.376 35.4947 157.376 35.908C157.376 36.342 157.314 36.683 157.19 36.931C157.066 37.1583 156.829 37.396 156.477 37.644ZM146.123 46.51C146.661 46.51 147.177 46.1173 147.673 45.332C148.169 44.5467 148.51 43.503 148.696 42.201C146.547 43.4823 145.472 44.6913 145.472 45.828C145.472 46.2827 145.689 46.51 146.123 46.51ZM172.163 30.483C172.431 30.483 172.638 30.6173 172.783 30.886C172.927 31.1547 173 31.4957 173 31.909C173 32.4257 172.927 32.8287 172.783 33.118C172.638 33.3867 172.411 33.5727 172.101 33.676C170.861 34.11 169.497 34.358 168.009 34.42C167.595 36.1353 166.81 37.52 165.653 38.574C164.516 39.628 163.255 40.155 161.871 40.155C159.783 40.155 158.264 39.3593 157.314 37.768C156.363 36.1767 155.888 33.8723 155.888 30.855C155.888 28.189 156.218 25.2957 156.88 22.175C157.541 19.0337 158.502 16.3677 159.763 14.177C161.044 11.9657 162.563 10.86 164.32 10.86C165.27 10.86 166.035 11.2733 166.614 12.1C167.192 12.906 167.482 13.96 167.482 15.262C167.482 16.9567 167.161 18.641 166.521 20.315C165.88 21.989 164.816 23.7457 163.328 25.585C164.712 25.6883 165.839 26.267 166.707 27.321C167.575 28.3543 168.091 29.6357 168.257 31.165C169.228 31.103 170.385 30.8963 171.729 30.545C171.853 30.5037 171.997 30.483 172.163 30.483ZM163.607 13.929C163.193 13.929 162.739 14.549 162.243 15.789C161.767 17.0083 161.323 18.672 160.91 20.78C160.496 22.888 160.186 25.1923 159.98 27.693C161.344 25.1923 162.429 22.9913 163.235 21.09C164.061 19.168 164.475 17.463 164.475 15.975C164.475 15.3137 164.392 14.8073 164.227 14.456C164.082 14.1047 163.875 13.929 163.607 13.929ZM161.995 36.869C162.635 36.869 163.204 36.6003 163.7 36.063C164.196 35.5257 164.526 34.7507 164.692 33.738C164.051 33.304 163.555 32.7357 163.204 32.033C162.873 31.3303 162.708 30.5863 162.708 29.801C162.708 29.5117 162.749 29.119 162.832 28.623H162.739C161.891 28.623 161.178 29.0467 160.6 29.894C160.042 30.7207 159.763 31.8367 159.763 33.242C159.763 34.42 159.98 35.319 160.414 35.939C160.868 36.559 161.395 36.869 161.995 36.869ZM184.149 33.087C184.418 33.087 184.624 33.211 184.769 33.459C184.934 33.707 185.017 34.048 185.017 34.482C185.017 35.3087 184.821 35.9493 184.428 36.404C183.663 37.334 182.578 38.1917 181.173 38.977C179.788 39.7623 178.3 40.155 176.709 40.155C174.539 40.155 172.855 39.566 171.656 38.388C170.457 37.21 169.858 35.598 169.858 33.552C169.858 32.126 170.158 30.8033 170.757 29.584C171.356 28.344 172.183 27.3623 173.237 26.639C174.312 25.9157 175.521 25.554 176.864 25.554C178.063 25.554 179.024 25.9157 179.747 26.639C180.47 27.3417 180.832 28.3027 180.832 29.522C180.832 30.948 180.315 32.1777 179.282 33.211C178.269 34.2237 176.544 35.0297 174.105 35.629C174.622 36.5797 175.603 37.055 177.05 37.055C177.98 37.055 179.034 36.7347 180.212 36.094C181.411 35.4327 182.444 34.575 183.312 33.521C183.56 33.2317 183.839 33.087 184.149 33.087ZM176.337 28.592C175.572 28.592 174.921 29.0363 174.384 29.925C173.867 30.8137 173.609 31.8883 173.609 33.149V33.211C174.828 32.9217 175.789 32.4877 176.492 31.909C177.195 31.3303 177.546 30.6587 177.546 29.894C177.546 29.5013 177.432 29.1913 177.205 28.964C176.998 28.716 176.709 28.592 176.337 28.592ZM184.694 40.155C183.909 40.155 183.351 39.7417 183.02 38.915C182.71 38.0883 182.555 36.7657 182.555 34.947C182.555 32.2603 182.937 29.708 183.702 27.29C183.888 26.6907 184.188 26.2567 184.601 25.988C185.035 25.6987 185.634 25.554 186.399 25.554C186.812 25.554 187.102 25.6057 187.267 25.709C187.432 25.8123 187.515 26.0087 187.515 26.298C187.515 26.6287 187.36 27.3727 187.05 28.53C186.843 29.3567 186.678 30.08 186.554 30.7C186.43 31.2993 186.327 32.0537 186.244 32.963C186.802 31.351 187.463 29.987 188.228 28.871C189.013 27.755 189.809 26.9283 190.615 26.391C191.442 25.833 192.217 25.554 192.94 25.554C193.663 25.554 194.17 25.7193 194.459 26.05C194.769 26.3807 194.924 26.887 194.924 27.569C194.924 28.2303 194.728 29.429 194.335 31.165C194.17 31.909 194.056 32.467 193.994 32.839C195.027 30.297 196.174 28.4473 197.435 27.29C198.696 26.1327 199.874 25.554 200.969 25.554C202.312 25.554 202.984 26.2257 202.984 27.569C202.984 28.375 202.757 29.832 202.302 31.94C201.909 33.738 201.713 34.9263 201.713 35.505C201.713 36.3317 202.013 36.745 202.612 36.745C203.025 36.745 203.511 36.497 204.069 36.001C204.648 35.4843 205.412 34.6577 206.363 33.521C206.611 33.2317 206.89 33.087 207.2 33.087C207.469 33.087 207.675 33.211 207.82 33.459C207.985 33.707 208.068 34.048 208.068 34.482C208.068 35.3087 207.872 35.9493 207.479 36.404C206.59 37.4993 205.629 38.3983 204.596 39.101C203.583 39.8037 202.426 40.155 201.124 40.155C200.07 40.155 199.274 39.8553 198.737 39.256C198.2 38.636 197.931 37.7473 197.931 36.59C197.931 36.0113 198.076 34.978 198.365 33.49C198.634 32.188 198.768 31.289 198.768 30.793C198.768 30.4623 198.654 30.297 198.427 30.297C198.158 30.297 197.776 30.6483 197.28 31.351C196.784 32.033 196.288 32.9423 195.792 34.079C195.296 35.2157 194.893 36.4143 194.583 37.675C194.356 38.667 194.087 39.3283 193.777 39.659C193.488 39.9897 193.012 40.155 192.351 40.155C191.669 40.155 191.152 39.8347 190.801 39.194C190.47 38.5327 190.305 37.737 190.305 36.807C190.305 36.0217 190.408 34.885 190.615 33.397C190.78 32.0743 190.863 31.2063 190.863 30.793C190.863 30.4623 190.749 30.297 190.522 30.297C190.212 30.297 189.819 30.669 189.344 31.413C188.869 32.157 188.404 33.1077 187.949 34.265C187.515 35.4223 187.164 36.559 186.895 37.675C186.668 38.6463 186.399 39.3077 186.089 39.659C185.8 39.9897 185.335 40.155 184.694 40.155ZM228.966 33.087C229.235 33.087 229.442 33.211 229.586 33.459C229.752 33.707 229.834 34.048 229.834 34.482C229.834 35.3087 229.638 35.9493 229.245 36.404C227.199 38.9047 225.288 40.155 223.51 40.155C222.167 40.155 221.185 39.6797 220.565 38.729C219.966 37.7783 219.666 36.5177 219.666 34.947V34.482C218.53 36.1973 217.269 37.5717 215.884 38.605C214.52 39.6383 213.084 40.155 211.575 40.155C209.777 40.155 208.341 39.6177 207.266 38.543C206.212 37.4683 205.685 36.0837 205.685 34.389C205.685 33.149 205.778 31.971 205.964 30.855C206.15 29.739 206.44 28.5507 206.832 27.29C207.018 26.6907 207.318 26.2567 207.731 25.988C208.165 25.6987 208.785 25.554 209.591 25.554C210.521 25.554 210.986 25.802 210.986 26.298C210.986 26.5047 210.831 27.2487 210.521 28.53L210.304 29.46L209.87 31.32C210.428 30.762 211.09 30.3073 211.854 29.956C212.64 29.584 213.435 29.398 214.241 29.398C215.192 29.398 215.977 29.6873 216.597 30.266C217.217 30.824 217.569 31.6197 217.651 32.653C218.457 31.6817 219.119 30.7723 219.635 29.925C220.152 29.057 220.596 28.158 220.968 27.228C221.154 26.608 221.392 26.174 221.681 25.926C221.991 25.678 222.487 25.554 223.169 25.554C224.223 25.554 224.75 25.9053 224.75 26.608C224.75 27.1247 224.554 28.3233 224.161 30.204C223.665 32.4773 223.417 34.017 223.417 34.823C223.417 35.443 223.5 35.9183 223.665 36.249C223.831 36.5797 224.11 36.745 224.502 36.745C224.874 36.745 225.339 36.4867 225.897 35.97C226.455 35.4533 227.199 34.637 228.129 33.521C228.377 33.2317 228.656 33.087 228.966 33.087ZM214.458 34.296C214.458 33.2007 213.869 32.653 212.691 32.653C211.989 32.653 211.369 32.8493 210.831 33.242C210.315 33.6347 209.901 34.0893 209.591 34.606C209.674 35.3707 209.891 35.939 210.242 36.311C210.594 36.683 211.131 36.869 211.854 36.869C212.681 36.869 213.322 36.6417 213.776 36.187C214.231 35.7323 214.458 35.102 214.458 34.296ZM235.129 32.746C234.716 32.746 234.375 32.653 234.106 32.467C233.837 32.281 233.703 31.9917 233.703 31.599L233.734 31.351C234.085 29.0363 234.561 26.4013 235.16 23.446C235.759 20.4907 236.317 17.9383 236.834 15.789C237.165 14.4663 238.064 13.805 239.531 13.805C240.854 13.805 241.515 14.2287 241.515 15.076C241.515 15.262 241.484 15.4687 241.422 15.696C240.885 17.8867 240.172 20.5423 239.283 23.663C238.394 26.763 237.547 29.46 236.741 31.754C236.514 32.4153 235.976 32.746 235.129 32.746ZM233.951 40.155C233.042 40.155 232.349 39.907 231.874 39.411C231.419 38.915 231.192 38.264 231.192 37.458C231.192 36.528 231.45 35.784 231.967 35.226C232.504 34.668 233.248 34.389 234.199 34.389C235.108 34.389 235.79 34.6163 236.245 35.071C236.72 35.505 236.958 36.156 236.958 37.024C236.958 37.9747 236.689 38.7393 236.152 39.318C235.615 39.876 234.881 40.155 233.951 40.155Z" fill="#F07591"/>
</g>
<defs>
<clipPath id="clip0_664_6">
<rect width="241" height="54" fill="white"/>
</clipPath>
</defs>
</svg>
