<svg width="240" height="44" viewBox="0 0 240 44" fill="none" xmlns="http://www.w3.org/2000/svg">
<path d="M16.019 15.43C17.4243 15.8227 18.5093 16.5047 19.274 17.476C20.0593 18.4267 20.452 19.5943 20.452 20.979C20.452 22.6117 19.987 24.1307 19.057 25.536C18.127 26.9413 16.8043 28.0677 15.089 28.915C13.3943 29.7417 11.4413 30.155 9.23 30.155C6.60533 30.155 4.53867 29.5867 3.03 28.45C1.542 27.3133 0.798 25.7323 0.798 23.707C0.798 22.6737 0.984 21.909 1.356 21.413C1.74867 20.917 2.33767 20.669 3.123 20.669C3.70167 20.669 4.15633 20.8343 4.487 21.165C4.83833 21.475 5.014 21.9297 5.014 22.529C5.014 23.6037 5.14833 24.451 5.417 25.071C5.70633 25.6703 6.161 26.1147 6.781 26.404C7.42167 26.6727 8.31033 26.807 9.447 26.807C10.687 26.807 11.7927 26.528 12.764 25.97C13.756 25.412 14.5207 24.6783 15.058 23.769C15.616 22.8597 15.895 21.8883 15.895 20.855C15.895 19.987 15.6883 19.2637 15.275 18.685C14.8617 18.0857 14.3243 17.7343 13.663 17.631C12.0717 18.5403 10.4597 18.995 8.827 18.995C8.145 18.995 7.65933 18.8813 7.37 18.654C7.08067 18.4267 6.936 18.0547 6.936 17.538C6.936 16.794 7.32867 16.2257 8.114 15.833C8.92 15.4403 10.1807 15.2027 11.896 15.12C14.004 13.7973 15.058 12.0613 15.058 9.912C15.058 9.00267 14.7997 8.3 14.283 7.804C13.7663 7.28733 12.9913 7.029 11.958 7.029C10.9867 7.029 10.129 7.184 9.385 7.494C8.641 7.78333 8.06233 8.18633 7.649 8.703C7.23567 9.199 7.029 9.73633 7.029 10.315C7.029 10.4803 7.04967 10.6973 7.091 10.966C7.13233 11.2347 7.153 11.4413 7.153 11.586C7.153 12.1027 6.98767 12.4953 6.657 12.764C6.347 13.012 5.92333 13.136 5.386 13.136C4.60067 13.136 4.03233 12.857 3.681 12.299C3.32967 11.7203 3.154 10.9557 3.154 10.005C3.154 8.86833 3.526 7.82467 4.27 6.874C5.03467 5.90267 6.11967 5.138 7.525 4.58C8.93033 4.00133 10.5527 3.712 12.392 3.712C14.7687 3.712 16.5047 4.18733 17.6 5.138C18.6953 6.08867 19.243 7.39067 19.243 9.044C19.243 10.284 18.964 11.462 18.406 12.578C17.8687 13.6733 17.073 14.624 16.019 15.43ZM26.7639 30.155C25.4826 30.155 24.4596 29.69 23.6949 28.76C22.9302 27.83 22.5479 26.6107 22.5479 25.102C22.5479 23.4487 22.9302 21.8883 23.6949 20.421C24.4596 18.933 25.4722 17.7447 26.7329 16.856C28.0142 15.9467 29.3679 15.492 30.7939 15.492C31.2486 15.492 31.5482 15.585 31.6929 15.771C31.8582 15.9363 31.9926 16.2463 32.0959 16.701C32.5299 16.6183 32.9846 16.577 33.4599 16.577C34.4726 16.577 34.9789 16.9387 34.9789 17.662C34.9789 18.096 34.8239 19.1293 34.5139 20.762C34.0386 23.1387 33.8009 24.792 33.8009 25.722C33.8009 26.032 33.8732 26.28 34.0179 26.466C34.1832 26.652 34.3899 26.745 34.6379 26.745C35.0306 26.745 35.5059 26.497 36.0639 26.001C36.6219 25.4843 37.3762 24.6577 38.3269 23.521C38.5749 23.2317 38.8539 23.087 39.1639 23.087C39.4326 23.087 39.6392 23.211 39.7839 23.459C39.9492 23.707 40.0319 24.048 40.0319 24.482C40.0319 25.3087 39.8356 25.9493 39.4429 26.404C38.5956 27.458 37.6966 28.3467 36.7459 29.07C35.7952 29.7933 34.8756 30.155 33.9869 30.155C33.3049 30.155 32.6746 29.9277 32.0959 29.473C31.5379 28.9977 31.1142 28.357 30.8249 27.551C29.7502 29.287 28.3966 30.155 26.7639 30.155ZM27.8799 27.024C28.3346 27.024 28.7686 26.7553 29.1819 26.218C29.5952 25.6807 29.8949 24.9677 30.0809 24.079L31.2279 18.375C30.3599 18.3957 29.5539 18.7263 28.8099 19.367C28.0866 19.987 27.5079 20.8137 27.0739 21.847C26.6399 22.8803 26.4229 23.9757 26.4229 25.133C26.4229 25.7737 26.5469 26.249 26.7949 26.559C27.0636 26.869 27.4252 27.024 27.8799 27.024ZM40.6744 30.155C39.7444 30.155 38.9797 29.7313 38.3804 28.884C37.8017 28.016 37.5124 26.9413 37.5124 25.66C37.5124 24.11 37.6157 22.6943 37.8224 21.413C38.0291 20.111 38.3701 18.7367 38.8454 17.29C39.0521 16.67 39.3414 16.2257 39.7134 15.957C40.0854 15.6883 40.6744 15.554 41.4804 15.554C41.9351 15.554 42.2451 15.6263 42.4104 15.771C42.5964 15.9157 42.6894 16.1327 42.6894 16.422C42.6894 16.5873 42.5757 17.1453 42.3484 18.096C42.1417 18.8607 41.9764 19.553 41.8524 20.173C41.4391 22.343 41.2324 23.7897 41.2324 24.513C41.2324 24.947 41.2841 25.257 41.3874 25.443C41.4907 25.6083 41.6561 25.691 41.8834 25.691C42.1934 25.691 42.5757 25.381 43.0304 24.761C43.5057 24.141 44.0017 23.2007 44.5184 21.94C45.0557 20.6793 45.5724 19.1293 46.0684 17.29C46.2337 16.67 46.4817 16.2257 46.8124 15.957C47.1637 15.6883 47.6804 15.554 48.3624 15.554C48.8377 15.554 49.1684 15.616 49.3544 15.74C49.5404 15.8433 49.6334 16.05 49.6334 16.36C49.6334 16.8767 49.3751 18.2923 48.8584 20.607C48.2797 23.2523 47.9904 24.885 47.9904 25.505C47.9904 25.8977 48.0731 26.2077 48.2384 26.435C48.4037 26.6417 48.6207 26.745 48.8894 26.745C49.3027 26.745 49.7884 26.497 50.3464 26.001C50.9251 25.4843 51.6897 24.6577 52.6404 23.521C52.8884 23.2317 53.1674 23.087 53.4774 23.087C53.7461 23.087 53.9527 23.211 54.0974 23.459C54.2627 23.707 54.3454 24.048 54.3454 24.482C54.3454 25.3087 54.1491 25.9493 53.7564 26.404C52.8677 27.4993 51.9067 28.3983 50.8734 29.101C49.8607 29.8037 48.7034 30.155 47.4014 30.155C46.4094 30.155 45.6757 29.7727 45.2004 29.008C44.7457 28.2433 44.5184 27.1687 44.5184 25.784C44.1671 27.1893 43.6401 28.2743 42.9374 29.039C42.2347 29.783 41.4804 30.155 40.6744 30.155ZM44.0224 13.508C43.0717 13.508 42.2347 13.3117 41.5114 12.919C40.7881 12.5263 40.2301 12.0097 39.8374 11.369C39.4447 10.7283 39.2484 10.0463 39.2484 9.323C39.2484 8.80633 39.4137 8.393 39.7444 8.083C40.0751 7.75233 40.4987 7.587 41.0154 7.587C41.5527 7.587 41.9454 7.711 42.1934 7.959C42.4414 8.207 42.6377 8.63067 42.7824 9.23C42.9891 10.098 43.5574 10.532 44.4874 10.532C45.4587 10.532 46.2957 10.2633 46.9984 9.726C47.7011 9.168 48.2074 8.49633 48.5174 7.711C48.6827 7.29767 48.8687 7.00833 49.0754 6.843C49.2821 6.657 49.5507 6.564 49.8814 6.564C50.1914 6.564 50.4497 6.688 50.6564 6.936C50.8837 7.16333 50.9974 7.45267 50.9974 7.804L50.9354 8.176C50.7287 9.02333 50.3464 9.85 49.7884 10.656C49.2304 11.462 48.4657 12.144 47.4944 12.702C46.5231 13.2393 45.3657 13.508 44.0224 13.508ZM56.6569 34.898C56.2022 34.898 55.8405 34.7947 55.5719 34.588C55.3032 34.3813 55.1689 34.0507 55.1689 33.596C55.1689 33.41 55.1999 33.193 55.2619 32.945C55.4892 31.9943 55.6545 31.116 55.7579 30.31C55.8819 29.504 55.9439 28.605 55.9439 27.613C55.9439 26.5797 56.1815 25.784 56.6569 25.226C57.1529 24.668 57.7832 24.389 58.5479 24.389C59.2919 24.389 59.8499 24.5957 60.2219 25.009C60.6145 25.4017 60.8109 25.939 60.8109 26.621C60.8109 27.3443 60.5939 28.3053 60.1599 29.504C59.7259 30.7027 59.1989 31.8703 58.5789 33.007C58.1655 33.7717 57.8349 34.278 57.5869 34.526C57.3595 34.774 57.0495 34.898 56.6569 34.898ZM74.5279 30.155C73.7425 30.155 73.1845 29.7417 72.8539 28.915C72.5439 28.0883 72.3889 26.7657 72.3889 24.947C72.3889 22.2603 72.7712 19.708 73.5359 17.29C73.7219 16.6907 74.0215 16.2567 74.4349 15.988C74.8689 15.6987 75.4682 15.554 76.2329 15.554C76.6462 15.554 76.9355 15.6057 77.1009 15.709C77.2662 15.8123 77.3489 16.0087 77.3489 16.298C77.3489 16.6287 77.1939 17.3727 76.8839 18.53C76.8425 18.6747 76.7495 19.0053 76.6049 19.522C76.4809 20.0387 76.3569 20.6483 76.2329 21.351C76.1295 22.033 76.0572 22.7873 76.0159 23.614C76.7599 20.7207 77.7002 18.654 78.8369 17.414C79.9735 16.174 81.3479 15.554 82.9599 15.554C84.0345 15.554 84.8715 15.895 85.4709 16.577C86.0909 17.2383 86.4009 18.096 86.4009 19.15C86.4009 20.018 86.2045 20.7517 85.8119 21.351C85.4399 21.9503 84.9439 22.25 84.3239 22.25C83.9312 22.25 83.6109 22.157 83.3629 21.971C83.1355 21.785 83.0219 21.5267 83.0219 21.196C83.0219 21.0513 83.0425 20.886 83.0839 20.7C83.1252 20.514 83.1562 20.3797 83.1769 20.297C83.2802 19.987 83.3319 19.6977 83.3319 19.429C83.3319 18.871 83.0632 18.592 82.5259 18.592C82.1125 18.592 81.7095 18.809 81.3169 19.243C80.9242 19.6563 80.6039 20.2247 80.3559 20.948C80.1285 21.6507 80.0149 22.4153 80.0149 23.242C80.0149 24.358 80.2732 25.257 80.7899 25.939C81.3065 26.6003 82.0505 26.931 83.0219 26.931C83.7865 26.931 84.4685 26.683 85.0679 26.187C85.6672 25.6703 86.4939 24.7817 87.5479 23.521C87.7959 23.2317 88.0749 23.087 88.3849 23.087C88.6535 23.087 88.8602 23.211 89.0049 23.459C89.1702 23.707 89.2529 24.048 89.2529 24.482C89.2529 25.3087 89.0565 25.9493 88.6639 26.404C87.7339 27.52 86.8039 28.4293 85.8739 29.132C84.9439 29.814 83.8899 30.155 82.7119 30.155C81.7405 30.155 80.8519 29.9483 80.0459 29.535C79.2605 29.101 78.6199 28.5843 78.1239 27.985C77.6279 27.3857 77.3075 26.807 77.1629 26.249C77.1215 26.4143 76.9665 26.993 76.6979 27.985C76.4705 28.8117 76.2019 29.38 75.8919 29.69C75.6025 30 75.1479 30.155 74.5279 30.155ZM102.609 23.149C102.878 23.149 103.084 23.2833 103.229 23.552C103.394 23.8 103.477 24.1203 103.477 24.513C103.477 24.9883 103.405 25.3603 103.26 25.629C103.115 25.8977 102.888 26.1353 102.578 26.342L96.626 30.341C95.8407 34.619 94.8074 37.9773 93.526 40.416C92.2654 42.8753 90.6534 44.105 88.69 44.105C87.636 44.105 86.7784 43.7743 86.117 43.113C85.4557 42.4723 85.125 41.625 85.125 40.571C85.125 39.5997 85.342 38.6077 85.776 37.595C86.2307 36.5823 87.0574 35.4147 88.256 34.092C89.4754 32.79 91.1907 31.2917 93.402 29.597L93.495 28.884C93.6397 28.1193 93.805 27.024 93.991 25.598C93.5777 27.086 92.999 28.2227 92.255 29.008C91.511 29.7727 90.7257 30.155 89.899 30.155C88.969 30.155 88.2044 29.7313 87.605 28.884C87.0264 28.016 86.737 26.9413 86.737 25.66C86.737 24.11 86.8404 22.6943 87.047 21.413C87.2537 20.111 87.5947 18.7367 88.07 17.29C88.2767 16.67 88.566 16.2257 88.938 15.957C89.31 15.6883 89.899 15.554 90.705 15.554C91.1597 15.554 91.4697 15.6263 91.635 15.771C91.821 15.9157 91.914 16.1327 91.914 16.422C91.914 16.5873 91.8004 17.1453 91.573 18.096C91.3664 18.8607 91.201 19.553 91.077 20.173C90.9117 21.0203 90.767 21.8367 90.643 22.622C90.519 23.3867 90.457 24.017 90.457 24.513C90.457 25.2983 90.674 25.691 91.108 25.691C91.418 25.691 91.8004 25.381 92.255 24.761C92.7304 24.141 93.2264 23.2007 93.743 21.94C94.2804 20.6793 94.797 19.1293 95.293 17.29C95.4584 16.67 95.7064 16.2257 96.037 15.957C96.3884 15.6883 96.905 15.554 97.587 15.554C98.0624 15.554 98.393 15.616 98.579 15.74C98.765 15.864 98.858 16.0707 98.858 16.36C98.858 16.8767 98.5894 18.654 98.052 21.692L97.246 26.683C98.8374 25.4843 100.387 24.389 101.896 23.397C102.165 23.2317 102.402 23.149 102.609 23.149ZM89.031 41.098C89.5477 41.098 90.1264 40.4987 90.767 39.3C91.4077 38.1013 92.0484 36.107 92.689 33.317C91.0977 34.6603 89.9404 35.8797 89.217 36.975C88.5144 38.091 88.163 39.0623 88.163 39.889C88.163 40.2403 88.225 40.5297 88.349 40.757C88.4937 40.9843 88.721 41.098 89.031 41.098ZM103.439 30.155C102.654 30.155 102.096 29.7417 101.765 28.915C101.455 28.0883 101.3 26.7657 101.3 24.947C101.3 22.2603 101.682 19.708 102.447 17.29C102.633 16.6907 102.933 16.2567 103.346 15.988C103.78 15.6987 104.379 15.554 105.144 15.554C105.557 15.554 105.847 15.6057 106.012 15.709C106.177 15.8123 106.26 16.0087 106.26 16.298C106.26 16.6287 106.105 17.3727 105.795 18.53C105.588 19.3567 105.423 20.08 105.299 20.7C105.175 21.32 105.072 22.0847 104.989 22.994C105.671 21.2167 106.436 19.77 107.283 18.654C108.13 17.538 108.957 16.7423 109.763 16.267C110.59 15.7917 111.344 15.554 112.026 15.554C113.369 15.554 114.041 16.2257 114.041 17.569C114.041 18.375 113.814 19.832 113.359 21.94C112.966 23.738 112.77 24.9263 112.77 25.505C112.77 26.3317 113.07 26.745 113.669 26.745C114.082 26.745 114.568 26.497 115.126 26.001C115.705 25.4843 116.469 24.6577 117.42 23.521C117.668 23.2317 117.947 23.087 118.257 23.087C118.526 23.087 118.732 23.211 118.877 23.459C119.042 23.707 119.125 24.048 119.125 24.482C119.125 25.3087 118.929 25.9493 118.536 26.404C117.647 27.4993 116.686 28.3983 115.653 29.101C114.64 29.8037 113.483 30.155 112.181 30.155C111.127 30.155 110.331 29.8553 109.794 29.256C109.257 28.636 108.988 27.7473 108.988 26.59C108.988 26.0113 109.133 24.978 109.422 23.49C109.691 22.188 109.825 21.289 109.825 20.793C109.825 20.4623 109.711 20.297 109.484 20.297C109.215 20.297 108.833 20.6483 108.337 21.351C107.862 22.033 107.366 22.9423 106.849 24.079C106.353 25.2157 105.95 26.4143 105.64 27.675C105.413 28.6463 105.144 29.3077 104.834 29.659C104.545 29.9897 104.08 30.155 103.439 30.155ZM119.779 30.155C118.849 30.155 118.084 29.7313 117.485 28.884C116.906 28.016 116.617 26.9413 116.617 25.66C116.617 24.11 116.72 22.6943 116.927 21.413C117.134 20.111 117.475 18.7367 117.95 17.29C118.157 16.67 118.446 16.2257 118.818 15.957C119.19 15.6883 119.779 15.554 120.585 15.554C121.04 15.554 121.35 15.6263 121.515 15.771C121.701 15.9157 121.794 16.1327 121.794 16.422C121.794 16.5873 121.68 17.1453 121.453 18.096C121.246 18.8607 121.081 19.553 120.957 20.173C120.544 22.343 120.337 23.7897 120.337 24.513C120.337 24.947 120.389 25.257 120.492 25.443C120.595 25.6083 120.761 25.691 120.988 25.691C121.298 25.691 121.68 25.381 122.135 24.761C122.61 24.141 123.106 23.2007 123.623 21.94C124.16 20.6793 124.677 19.1293 125.173 17.29C125.338 16.67 125.586 16.2257 125.917 15.957C126.268 15.6883 126.785 15.554 127.467 15.554C127.942 15.554 128.273 15.616 128.459 15.74C128.645 15.8433 128.738 16.05 128.738 16.36C128.738 16.8767 128.48 18.2923 127.963 20.607C127.384 23.2523 127.095 24.885 127.095 25.505C127.095 25.8977 127.178 26.2077 127.343 26.435C127.508 26.6417 127.725 26.745 127.994 26.745C128.407 26.745 128.893 26.497 129.451 26.001C130.03 25.4843 130.794 24.6577 131.745 23.521C131.993 23.2317 132.272 23.087 132.582 23.087C132.851 23.087 133.057 23.211 133.202 23.459C133.367 23.707 133.45 24.048 133.45 24.482C133.45 25.3087 133.254 25.9493 132.861 26.404C131.972 27.4993 131.011 28.3983 129.978 29.101C128.965 29.8037 127.808 30.155 126.506 30.155C125.514 30.155 124.78 29.7727 124.305 29.008C123.85 28.2433 123.623 27.1687 123.623 25.784C123.272 27.1893 122.745 28.2743 122.042 29.039C121.339 29.783 120.585 30.155 119.779 30.155ZM155.477 27.644C154.547 28.2847 153.059 29.2147 151.013 30.434C150.745 31.674 150.486 32.7487 150.238 33.658C149.722 35.518 148.957 36.944 147.944 37.936C146.932 38.928 145.774 39.424 144.472 39.424C143.604 39.424 142.881 39.1347 142.302 38.556C141.744 37.9773 141.465 37.254 141.465 36.386C141.465 35.642 141.641 34.929 141.992 34.247C142.364 33.5857 143.026 32.8417 143.976 32.015C144.948 31.1883 146.312 30.248 148.068 29.194V29.132C147.469 29.0287 146.994 28.6877 146.642 28.109C146.312 27.5097 146.146 26.7347 146.146 25.784C145.816 27.1273 145.299 28.1917 144.596 28.977C143.914 29.7623 143.15 30.155 142.302 30.155C141.393 30.155 140.639 29.7313 140.039 28.884C139.44 28.0367 139.14 26.962 139.14 25.66C139.14 24.1307 139.244 22.7253 139.45 21.444C139.657 20.142 139.998 18.7573 140.473 17.29C140.68 16.6493 140.969 16.205 141.341 15.957C141.734 15.6883 142.323 15.554 143.108 15.554C143.542 15.554 143.852 15.6263 144.038 15.771C144.224 15.895 144.317 16.112 144.317 16.422C144.317 16.5873 144.204 17.1453 143.976 18.096C143.77 18.8607 143.604 19.553 143.48 20.173C143.067 22.3637 142.86 23.8103 142.86 24.513C142.86 24.9263 142.912 25.226 143.015 25.412C143.119 25.598 143.284 25.691 143.511 25.691C144.069 25.691 144.741 24.9057 145.526 23.335C146.312 21.7643 147.035 19.7493 147.696 17.29C147.862 16.6493 148.12 16.205 148.471 15.957C148.823 15.6883 149.329 15.554 149.99 15.554C150.466 15.554 150.796 15.616 150.982 15.74C151.168 15.8433 151.261 16.05 151.261 16.36C151.261 16.856 151.003 18.22 150.486 20.452C150.259 21.382 150.052 22.3017 149.866 23.211C149.68 24.1203 149.587 24.7713 149.587 25.164C149.587 25.5567 149.639 25.8357 149.742 26.001C149.846 26.1457 150.001 26.218 150.207 26.218C150.29 26.218 150.383 26.2077 150.486 26.187C150.59 26.1663 150.693 26.156 150.796 26.156C150.941 26.156 151.044 26.2283 151.106 26.373C151.189 26.5177 151.22 26.807 151.199 27.241C152.522 26.4143 153.721 25.598 154.795 24.792C155.023 24.6267 155.26 24.544 155.508 24.544C155.777 24.544 155.984 24.668 156.128 24.916C156.294 25.164 156.376 25.4947 156.376 25.908C156.376 26.342 156.314 26.683 156.19 26.931C156.066 27.1583 155.829 27.396 155.477 27.644ZM145.123 36.51C145.661 36.51 146.177 36.1173 146.673 35.332C147.169 34.5467 147.51 33.503 147.696 32.201C145.547 33.4823 144.472 34.6913 144.472 35.828C144.472 36.2827 144.689 36.51 145.123 36.51ZM171.163 20.483C171.431 20.483 171.638 20.6173 171.783 20.886C171.927 21.1547 172 21.4957 172 21.909C172 22.4257 171.927 22.8287 171.783 23.118C171.638 23.3867 171.411 23.5727 171.101 23.676C169.861 24.11 168.497 24.358 167.009 24.42C166.595 26.1353 165.81 27.52 164.653 28.574C163.516 29.628 162.255 30.155 160.871 30.155C158.783 30.155 157.264 29.3593 156.314 27.768C155.363 26.1767 154.888 23.8723 154.888 20.855C154.888 18.189 155.218 15.2957 155.88 12.175C156.541 9.03366 157.502 6.36766 158.763 4.177C160.044 1.96566 161.563 0.859998 163.32 0.859998C164.27 0.859998 165.035 1.27333 165.614 2.1C166.192 2.906 166.482 3.96 166.482 5.262C166.482 6.95667 166.161 8.641 165.521 10.315C164.88 11.989 163.816 13.7457 162.328 15.585C163.712 15.6883 164.839 16.267 165.707 17.321C166.575 18.3543 167.091 19.6357 167.257 21.165C168.228 21.103 169.385 20.8963 170.729 20.545C170.853 20.5037 170.997 20.483 171.163 20.483ZM162.607 3.929C162.193 3.929 161.739 4.549 161.243 5.789C160.767 7.00833 160.323 8.672 159.91 10.78C159.496 12.888 159.186 15.1923 158.98 17.693C160.344 15.1923 161.429 12.9913 162.235 11.09C163.061 9.168 163.475 7.463 163.475 5.975C163.475 5.31367 163.392 4.80733 163.227 4.456C163.082 4.10467 162.875 3.929 162.607 3.929ZM160.995 26.869C161.635 26.869 162.204 26.6003 162.7 26.063C163.196 25.5257 163.526 24.7507 163.692 23.738C163.051 23.304 162.555 22.7357 162.204 22.033C161.873 21.3303 161.708 20.5863 161.708 19.801C161.708 19.5117 161.749 19.119 161.832 18.623H161.739C160.891 18.623 160.178 19.0467 159.6 19.894C159.042 20.7207 158.763 21.8367 158.763 23.242C158.763 24.42 158.98 25.319 159.414 25.939C159.868 26.559 160.395 26.869 160.995 26.869ZM183.149 23.087C183.418 23.087 183.624 23.211 183.769 23.459C183.934 23.707 184.017 24.048 184.017 24.482C184.017 25.3087 183.821 25.9493 183.428 26.404C182.663 27.334 181.578 28.1917 180.173 28.977C178.788 29.7623 177.3 30.155 175.709 30.155C173.539 30.155 171.855 29.566 170.656 28.388C169.457 27.21 168.858 25.598 168.858 23.552C168.858 22.126 169.158 20.8033 169.757 19.584C170.356 18.344 171.183 17.3623 172.237 16.639C173.312 15.9157 174.521 15.554 175.864 15.554C177.063 15.554 178.024 15.9157 178.747 16.639C179.47 17.3417 179.832 18.3027 179.832 19.522C179.832 20.948 179.315 22.1777 178.282 23.211C177.269 24.2237 175.544 25.0297 173.105 25.629C173.622 26.5797 174.603 27.055 176.05 27.055C176.98 27.055 178.034 26.7347 179.212 26.094C180.411 25.4327 181.444 24.575 182.312 23.521C182.56 23.2317 182.839 23.087 183.149 23.087ZM175.337 18.592C174.572 18.592 173.921 19.0363 173.384 19.925C172.867 20.8137 172.609 21.8883 172.609 23.149V23.211C173.828 22.9217 174.789 22.4877 175.492 21.909C176.195 21.3303 176.546 20.6587 176.546 19.894C176.546 19.5013 176.432 19.1913 176.205 18.964C175.998 18.716 175.709 18.592 175.337 18.592ZM183.694 30.155C182.909 30.155 182.351 29.7417 182.02 28.915C181.71 28.0883 181.555 26.7657 181.555 24.947C181.555 22.2603 181.937 19.708 182.702 17.29C182.888 16.6907 183.188 16.2567 183.601 15.988C184.035 15.6987 184.634 15.554 185.399 15.554C185.812 15.554 186.102 15.6057 186.267 15.709C186.432 15.8123 186.515 16.0087 186.515 16.298C186.515 16.6287 186.36 17.3727 186.05 18.53C185.843 19.3567 185.678 20.08 185.554 20.7C185.43 21.2993 185.327 22.0537 185.244 22.963C185.802 21.351 186.463 19.987 187.228 18.871C188.013 17.755 188.809 16.9283 189.615 16.391C190.442 15.833 191.217 15.554 191.94 15.554C192.663 15.554 193.17 15.7193 193.459 16.05C193.769 16.3807 193.924 16.887 193.924 17.569C193.924 18.2303 193.728 19.429 193.335 21.165C193.17 21.909 193.056 22.467 192.994 22.839C194.027 20.297 195.174 18.4473 196.435 17.29C197.696 16.1327 198.874 15.554 199.969 15.554C201.312 15.554 201.984 16.2257 201.984 17.569C201.984 18.375 201.757 19.832 201.302 21.94C200.909 23.738 200.713 24.9263 200.713 25.505C200.713 26.3317 201.013 26.745 201.612 26.745C202.025 26.745 202.511 26.497 203.069 26.001C203.648 25.4843 204.412 24.6577 205.363 23.521C205.611 23.2317 205.89 23.087 206.2 23.087C206.469 23.087 206.675 23.211 206.82 23.459C206.985 23.707 207.068 24.048 207.068 24.482C207.068 25.3087 206.872 25.9493 206.479 26.404C205.59 27.4993 204.629 28.3983 203.596 29.101C202.583 29.8037 201.426 30.155 200.124 30.155C199.07 30.155 198.274 29.8553 197.737 29.256C197.2 28.636 196.931 27.7473 196.931 26.59C196.931 26.0113 197.076 24.978 197.365 23.49C197.634 22.188 197.768 21.289 197.768 20.793C197.768 20.4623 197.654 20.297 197.427 20.297C197.158 20.297 196.776 20.6483 196.28 21.351C195.784 22.033 195.288 22.9423 194.792 24.079C194.296 25.2157 193.893 26.4143 193.583 27.675C193.356 28.667 193.087 29.3283 192.777 29.659C192.488 29.9897 192.012 30.155 191.351 30.155C190.669 30.155 190.152 29.8347 189.801 29.194C189.47 28.5327 189.305 27.737 189.305 26.807C189.305 26.0217 189.408 24.885 189.615 23.397C189.78 22.0743 189.863 21.2063 189.863 20.793C189.863 20.4623 189.749 20.297 189.522 20.297C189.212 20.297 188.819 20.669 188.344 21.413C187.869 22.157 187.404 23.1077 186.949 24.265C186.515 25.4223 186.164 26.559 185.895 27.675C185.668 28.6463 185.399 29.3077 185.089 29.659C184.8 29.9897 184.335 30.155 183.694 30.155ZM227.966 23.087C228.235 23.087 228.442 23.211 228.586 23.459C228.752 23.707 228.834 24.048 228.834 24.482C228.834 25.3087 228.638 25.9493 228.245 26.404C226.199 28.9047 224.288 30.155 222.51 30.155C221.167 30.155 220.185 29.6797 219.565 28.729C218.966 27.7783 218.666 26.5177 218.666 24.947V24.482C217.53 26.1973 216.269 27.5717 214.884 28.605C213.52 29.6383 212.084 30.155 210.575 30.155C208.777 30.155 207.341 29.6177 206.266 28.543C205.212 27.4683 204.685 26.0837 204.685 24.389C204.685 23.149 204.778 21.971 204.964 20.855C205.15 19.739 205.44 18.5507 205.832 17.29C206.018 16.6907 206.318 16.2567 206.731 15.988C207.165 15.6987 207.785 15.554 208.591 15.554C209.521 15.554 209.986 15.802 209.986 16.298C209.986 16.5047 209.831 17.2487 209.521 18.53L209.304 19.46L208.87 21.32C209.428 20.762 210.09 20.3073 210.854 19.956C211.64 19.584 212.435 19.398 213.241 19.398C214.192 19.398 214.977 19.6873 215.597 20.266C216.217 20.824 216.569 21.6197 216.651 22.653C217.457 21.6817 218.119 20.7723 218.635 19.925C219.152 19.057 219.596 18.158 219.968 17.228C220.154 16.608 220.392 16.174 220.681 15.926C220.991 15.678 221.487 15.554 222.169 15.554C223.223 15.554 223.75 15.9053 223.75 16.608C223.75 17.1247 223.554 18.3233 223.161 20.204C222.665 22.4773 222.417 24.017 222.417 24.823C222.417 25.443 222.5 25.9183 222.665 26.249C222.831 26.5797 223.11 26.745 223.502 26.745C223.874 26.745 224.339 26.4867 224.897 25.97C225.455 25.4533 226.199 24.637 227.129 23.521C227.377 23.2317 227.656 23.087 227.966 23.087ZM213.458 24.296C213.458 23.2007 212.869 22.653 211.691 22.653C210.989 22.653 210.369 22.8493 209.831 23.242C209.315 23.6347 208.901 24.0893 208.591 24.606C208.674 25.3707 208.891 25.939 209.242 26.311C209.594 26.683 210.131 26.869 210.854 26.869C211.681 26.869 212.322 26.6417 212.776 26.187C213.231 25.7323 213.458 25.102 213.458 24.296ZM234.129 22.746C233.716 22.746 233.375 22.653 233.106 22.467C232.837 22.281 232.703 21.9917 232.703 21.599L232.734 21.351C233.085 19.0363 233.561 16.4013 234.16 13.446C234.759 10.4907 235.317 7.93833 235.834 5.789C236.165 4.46633 237.064 3.805 238.531 3.805C239.854 3.805 240.515 4.22867 240.515 5.076C240.515 5.262 240.484 5.46867 240.422 5.696C239.885 7.88667 239.172 10.5423 238.283 13.663C237.394 16.763 236.547 19.46 235.741 21.754C235.514 22.4153 234.976 22.746 234.129 22.746ZM232.951 30.155C232.042 30.155 231.349 29.907 230.874 29.411C230.419 28.915 230.192 28.264 230.192 27.458C230.192 26.528 230.45 25.784 230.967 25.226C231.504 24.668 232.248 24.389 233.199 24.389C234.108 24.389 234.79 24.6163 235.245 25.071C235.72 25.505 235.958 26.156 235.958 27.024C235.958 27.9747 235.689 28.7393 235.152 29.318C234.615 29.876 233.881 30.155 232.951 30.155Z" fill="#F07591"/>
</svg>
