<svg width="241" height="61" viewBox="0 0 241 61" fill="none" xmlns="http://www.w3.org/2000/svg">
<g clip-path="url(#clip0_664_409)">
<path d="M17.019 14.43C18.4243 14.8227 19.5093 15.5047 20.274 16.476C21.0593 17.4267 21.452 18.5943 21.452 19.979C21.452 21.6117 20.987 23.1307 20.057 24.536C19.127 25.9413 17.8043 27.0677 16.089 27.915C14.3943 28.7417 12.4413 29.155 10.23 29.155C7.60533 29.155 5.53867 28.5867 4.03 27.45C2.542 26.3133 1.798 24.7323 1.798 22.707C1.798 21.6737 1.984 20.909 2.356 20.413C2.74867 19.917 3.33767 19.669 4.123 19.669C4.70167 19.669 5.15633 19.8343 5.487 20.165C5.83833 20.475 6.014 20.9297 6.014 21.529C6.014 22.6037 6.14833 23.451 6.417 24.071C6.70633 24.6703 7.161 25.1147 7.781 25.404C8.42167 25.6727 9.31033 25.807 10.447 25.807C11.687 25.807 12.7927 25.528 13.764 24.97C14.756 24.412 15.5207 23.6783 16.058 22.769C16.616 21.8597 16.895 20.8883 16.895 19.855C16.895 18.987 16.6883 18.2637 16.275 17.685C15.8617 17.0857 15.3243 16.7343 14.663 16.631C13.0717 17.5403 11.4597 17.995 9.827 17.995C9.145 17.995 8.65933 17.8813 8.37 17.654C8.08067 17.4267 7.936 17.0547 7.936 16.538C7.936 15.794 8.32867 15.2257 9.114 14.833C9.92 14.4403 11.1807 14.2027 12.896 14.12C15.004 12.7973 16.058 11.0613 16.058 8.912C16.058 8.00267 15.7997 7.3 15.283 6.804C14.7663 6.28733 13.9913 6.029 12.958 6.029C11.9867 6.029 11.129 6.184 10.385 6.494C9.641 6.78333 9.06233 7.18633 8.649 7.703C8.23567 8.199 8.029 8.73633 8.029 9.315C8.029 9.48033 8.04967 9.69733 8.091 9.966C8.13233 10.2347 8.153 10.4413 8.153 10.586C8.153 11.1027 7.98767 11.4953 7.657 11.764C7.347 12.012 6.92333 12.136 6.386 12.136C5.60067 12.136 5.03233 11.857 4.681 11.299C4.32967 10.7203 4.154 9.95567 4.154 9.005C4.154 7.86833 4.526 6.82467 5.27 5.874C6.03467 4.90267 7.11967 4.138 8.525 3.58C9.93033 3.00133 11.5527 2.712 13.392 2.712C15.7687 2.712 17.5047 3.18733 18.6 4.138C19.6953 5.08867 20.243 6.39067 20.243 8.044C20.243 9.284 19.964 10.462 19.406 11.578C18.8687 12.6733 18.073 13.624 17.019 14.43ZM27.7639 29.155C26.4826 29.155 25.4596 28.69 24.6949 27.76C23.9302 26.83 23.5479 25.6107 23.5479 24.102C23.5479 22.4487 23.9302 20.8883 24.6949 19.421C25.4596 17.933 26.4722 16.7447 27.7329 15.856C29.0142 14.9467 30.3679 14.492 31.7939 14.492C32.2486 14.492 32.5482 14.585 32.6929 14.771C32.8582 14.9363 32.9926 15.2463 33.0959 15.701C33.5299 15.6183 33.9846 15.577 34.4599 15.577C35.4726 15.577 35.9789 15.9387 35.9789 16.662C35.9789 17.096 35.8239 18.1293 35.5139 19.762C35.0386 22.1387 34.8009 23.792 34.8009 24.722C34.8009 25.032 34.8732 25.28 35.0179 25.466C35.1832 25.652 35.3899 25.745 35.6379 25.745C36.0306 25.745 36.5059 25.497 37.0639 25.001C37.6219 24.4843 38.3762 23.6577 39.3269 22.521C39.5749 22.2317 39.8539 22.087 40.1639 22.087C40.4326 22.087 40.6392 22.211 40.7839 22.459C40.9492 22.707 41.0319 23.048 41.0319 23.482C41.0319 24.3087 40.8356 24.9493 40.4429 25.404C39.5956 26.458 38.6966 27.3467 37.7459 28.07C36.7952 28.7933 35.8756 29.155 34.9869 29.155C34.3049 29.155 33.6746 28.9277 33.0959 28.473C32.5379 27.9977 32.1142 27.357 31.8249 26.551C30.7502 28.287 29.3966 29.155 27.7639 29.155ZM28.8799 26.024C29.3346 26.024 29.7686 25.7553 30.1819 25.218C30.5952 24.6807 30.8949 23.9677 31.0809 23.079L32.2279 17.375C31.3599 17.3957 30.5539 17.7263 29.8099 18.367C29.0866 18.987 28.5079 19.8137 28.0739 20.847C27.6399 21.8803 27.4229 22.9757 27.4229 24.133C27.4229 24.7737 27.5469 25.249 27.7949 25.559C28.0636 25.869 28.4252 26.024 28.8799 26.024ZM41.6744 29.155C40.7444 29.155 39.9797 28.7313 39.3804 27.884C38.8017 27.016 38.5124 25.9413 38.5124 24.66C38.5124 23.11 38.6157 21.6943 38.8224 20.413C39.0291 19.111 39.3701 17.7367 39.8454 16.29C40.0521 15.67 40.3414 15.2257 40.7134 14.957C41.0854 14.6883 41.6744 14.554 42.4804 14.554C42.9351 14.554 43.2451 14.6263 43.4104 14.771C43.5964 14.9157 43.6894 15.1327 43.6894 15.422C43.6894 15.5873 43.5757 16.1453 43.3484 17.096C43.1417 17.8607 42.9764 18.553 42.8524 19.173C42.4391 21.343 42.2324 22.7897 42.2324 23.513C42.2324 23.947 42.2841 24.257 42.3874 24.443C42.4907 24.6083 42.6561 24.691 42.8834 24.691C43.1934 24.691 43.5757 24.381 44.0304 23.761C44.5057 23.141 45.0017 22.2007 45.5184 20.94C46.0557 19.6793 46.5724 18.1293 47.0684 16.29C47.2337 15.67 47.4817 15.2257 47.8124 14.957C48.1637 14.6883 48.6804 14.554 49.3624 14.554C49.8377 14.554 50.1684 14.616 50.3544 14.74C50.5404 14.8433 50.6334 15.05 50.6334 15.36C50.6334 15.8767 50.3751 17.2923 49.8584 19.607C49.2797 22.2523 48.9904 23.885 48.9904 24.505C48.9904 24.8977 49.0731 25.2077 49.2384 25.435C49.4037 25.6417 49.6207 25.745 49.8894 25.745C50.3027 25.745 50.7884 25.497 51.3464 25.001C51.9251 24.4843 52.6897 23.6577 53.6404 22.521C53.8884 22.2317 54.1674 22.087 54.4774 22.087C54.7461 22.087 54.9527 22.211 55.0974 22.459C55.2627 22.707 55.3454 23.048 55.3454 23.482C55.3454 24.3087 55.1491 24.9493 54.7564 25.404C53.8677 26.4993 52.9067 27.3983 51.8734 28.101C50.8607 28.8037 49.7034 29.155 48.4014 29.155C47.4094 29.155 46.6757 28.7727 46.2004 28.008C45.7457 27.2433 45.5184 26.1687 45.5184 24.784C45.1671 26.1893 44.6401 27.2743 43.9374 28.039C43.2347 28.783 42.4804 29.155 41.6744 29.155ZM45.0224 12.508C44.0717 12.508 43.2347 12.3117 42.5114 11.919C41.7881 11.5263 41.2301 11.0097 40.8374 10.369C40.4447 9.72833 40.2484 9.04633 40.2484 8.323C40.2484 7.80633 40.4137 7.393 40.7444 7.083C41.0751 6.75233 41.4987 6.587 42.0154 6.587C42.5527 6.587 42.9454 6.711 43.1934 6.959C43.4414 7.207 43.6377 7.63067 43.7824 8.23C43.9891 9.098 44.5574 9.532 45.4874 9.532C46.4587 9.532 47.2957 9.26333 47.9984 8.726C48.7011 8.168 49.2074 7.49633 49.5174 6.711C49.6827 6.29767 49.8687 6.00833 50.0754 5.843C50.2821 5.657 50.5507 5.564 50.8814 5.564C51.1914 5.564 51.4497 5.688 51.6564 5.936C51.8837 6.16333 51.9974 6.45267 51.9974 6.804L51.9354 7.176C51.7287 8.02333 51.3464 8.85 50.7884 9.656C50.2304 10.462 49.4657 11.144 48.4944 11.702C47.5231 12.2393 46.3657 12.508 45.0224 12.508ZM57.6569 33.898C57.2022 33.898 56.8405 33.7947 56.5719 33.588C56.3032 33.3813 56.1689 33.0507 56.1689 32.596C56.1689 32.41 56.1999 32.193 56.2619 31.945C56.4892 30.9943 56.6545 30.116 56.7579 29.31C56.8819 28.504 56.9439 27.605 56.9439 26.613C56.9439 25.5797 57.1815 24.784 57.6569 24.226C58.1529 23.668 58.7832 23.389 59.5479 23.389C60.2919 23.389 60.8499 23.5957 61.2219 24.009C61.6145 24.4017 61.8109 24.939 61.8109 25.621C61.8109 26.3443 61.5939 27.3053 61.1599 28.504C60.7259 29.7027 60.1989 30.8703 59.5789 32.007C59.1655 32.7717 58.8349 33.278 58.5869 33.526C58.3595 33.774 58.0495 33.898 57.6569 33.898ZM75.5279 29.155C74.7425 29.155 74.1845 28.7417 73.8539 27.915C73.5439 27.0883 73.3889 25.7657 73.3889 23.947C73.3889 21.2603 73.7712 18.708 74.5359 16.29C74.7219 15.6907 75.0215 15.2567 75.4349 14.988C75.8689 14.6987 76.4682 14.554 77.2329 14.554C77.6462 14.554 77.9355 14.6057 78.1009 14.709C78.2662 14.8123 78.3489 15.0087 78.3489 15.298C78.3489 15.6287 78.1939 16.3727 77.8839 17.53C77.8425 17.6747 77.7495 18.0053 77.6049 18.522C77.4809 19.0387 77.3569 19.6483 77.2329 20.351C77.1295 21.033 77.0572 21.7873 77.0159 22.614C77.7599 19.7207 78.7002 17.654 79.8369 16.414C80.9735 15.174 82.3479 14.554 83.9599 14.554C85.0345 14.554 85.8715 14.895 86.4709 15.577C87.0909 16.2383 87.4009 17.096 87.4009 18.15C87.4009 19.018 87.2045 19.7517 86.8119 20.351C86.4399 20.9503 85.9439 21.25 85.3239 21.25C84.9312 21.25 84.6109 21.157 84.3629 20.971C84.1355 20.785 84.0219 20.5267 84.0219 20.196C84.0219 20.0513 84.0425 19.886 84.0839 19.7C84.1252 19.514 84.1562 19.3797 84.1769 19.297C84.2802 18.987 84.3319 18.6977 84.3319 18.429C84.3319 17.871 84.0632 17.592 83.5259 17.592C83.1125 17.592 82.7095 17.809 82.3169 18.243C81.9242 18.6563 81.6039 19.2247 81.3559 19.948C81.1285 20.6507 81.0149 21.4153 81.0149 22.242C81.0149 23.358 81.2732 24.257 81.7899 24.939C82.3065 25.6003 83.0505 25.931 84.0219 25.931C84.7865 25.931 85.4685 25.683 86.0679 25.187C86.6672 24.6703 87.4939 23.7817 88.5479 22.521C88.7959 22.2317 89.0749 22.087 89.3849 22.087C89.6535 22.087 89.8602 22.211 90.0049 22.459C90.1702 22.707 90.2529 23.048 90.2529 23.482C90.2529 24.3087 90.0565 24.9493 89.6639 25.404C88.7339 26.52 87.8039 27.4293 86.8739 28.132C85.9439 28.814 84.8899 29.155 83.7119 29.155C82.7405 29.155 81.8519 28.9483 81.0459 28.535C80.2605 28.101 79.6199 27.5843 79.1239 26.985C78.6279 26.3857 78.3075 25.807 78.1629 25.249C78.1215 25.4143 77.9665 25.993 77.6979 26.985C77.4705 27.8117 77.2019 28.38 76.8919 28.69C76.6025 29 76.1479 29.155 75.5279 29.155ZM103.609 22.149C103.878 22.149 104.084 22.2833 104.229 22.552C104.394 22.8 104.477 23.1203 104.477 23.513C104.477 23.9883 104.405 24.3603 104.26 24.629C104.115 24.8977 103.888 25.1353 103.578 25.342L97.626 29.341C96.8407 33.619 95.8074 36.9773 94.526 39.416C93.2654 41.8753 91.6534 43.105 89.69 43.105C88.636 43.105 87.7784 42.7743 87.117 42.113C86.4557 41.4723 86.125 40.625 86.125 39.571C86.125 38.5997 86.342 37.6077 86.776 36.595C87.2307 35.5823 88.0574 34.4147 89.256 33.092C90.4754 31.79 92.1907 30.2917 94.402 28.597L94.495 27.884C94.6397 27.1193 94.805 26.024 94.991 24.598C94.5777 26.086 93.999 27.2227 93.255 28.008C92.511 28.7727 91.7257 29.155 90.899 29.155C89.969 29.155 89.2044 28.7313 88.605 27.884C88.0264 27.016 87.737 25.9413 87.737 24.66C87.737 23.11 87.8404 21.6943 88.047 20.413C88.2537 19.111 88.5947 17.7367 89.07 16.29C89.2767 15.67 89.566 15.2257 89.938 14.957C90.31 14.6883 90.899 14.554 91.705 14.554C92.1597 14.554 92.4697 14.6263 92.635 14.771C92.821 14.9157 92.914 15.1327 92.914 15.422C92.914 15.5873 92.8004 16.1453 92.573 17.096C92.3664 17.8607 92.201 18.553 92.077 19.173C91.9117 20.0203 91.767 20.8367 91.643 21.622C91.519 22.3867 91.457 23.017 91.457 23.513C91.457 24.2983 91.674 24.691 92.108 24.691C92.418 24.691 92.8004 24.381 93.255 23.761C93.7304 23.141 94.2264 22.2007 94.743 20.94C95.2804 19.6793 95.797 18.1293 96.293 16.29C96.4584 15.67 96.7064 15.2257 97.037 14.957C97.3884 14.6883 97.905 14.554 98.587 14.554C99.0624 14.554 99.393 14.616 99.579 14.74C99.765 14.864 99.858 15.0707 99.858 15.36C99.858 15.8767 99.5894 17.654 99.052 20.692L98.246 25.683C99.8374 24.4843 101.387 23.389 102.896 22.397C103.165 22.2317 103.402 22.149 103.609 22.149ZM90.031 40.098C90.5477 40.098 91.1264 39.4987 91.767 38.3C92.4077 37.1013 93.0484 35.107 93.689 32.317C92.0977 33.6603 90.9404 34.8797 90.217 35.975C89.5144 37.091 89.163 38.0623 89.163 38.889C89.163 39.2403 89.225 39.5297 89.349 39.757C89.4937 39.9843 89.721 40.098 90.031 40.098ZM104.439 29.155C103.654 29.155 103.096 28.7417 102.765 27.915C102.455 27.0883 102.3 25.7657 102.3 23.947C102.3 21.2603 102.682 18.708 103.447 16.29C103.633 15.6907 103.933 15.2567 104.346 14.988C104.78 14.6987 105.379 14.554 106.144 14.554C106.557 14.554 106.847 14.6057 107.012 14.709C107.177 14.8123 107.26 15.0087 107.26 15.298C107.26 15.6287 107.105 16.3727 106.795 17.53C106.588 18.3567 106.423 19.08 106.299 19.7C106.175 20.32 106.072 21.0847 105.989 21.994C106.671 20.2167 107.436 18.77 108.283 17.654C109.13 16.538 109.957 15.7423 110.763 15.267C111.59 14.7917 112.344 14.554 113.026 14.554C114.369 14.554 115.041 15.2257 115.041 16.569C115.041 17.375 114.814 18.832 114.359 20.94C113.966 22.738 113.77 23.9263 113.77 24.505C113.77 25.3317 114.07 25.745 114.669 25.745C115.082 25.745 115.568 25.497 116.126 25.001C116.705 24.4843 117.469 23.6577 118.42 22.521C118.668 22.2317 118.947 22.087 119.257 22.087C119.526 22.087 119.732 22.211 119.877 22.459C120.042 22.707 120.125 23.048 120.125 23.482C120.125 24.3087 119.929 24.9493 119.536 25.404C118.647 26.4993 117.686 27.3983 116.653 28.101C115.64 28.8037 114.483 29.155 113.181 29.155C112.127 29.155 111.331 28.8553 110.794 28.256C110.257 27.636 109.988 26.7473 109.988 25.59C109.988 25.0113 110.133 23.978 110.422 22.49C110.691 21.188 110.825 20.289 110.825 19.793C110.825 19.4623 110.711 19.297 110.484 19.297C110.215 19.297 109.833 19.6483 109.337 20.351C108.862 21.033 108.366 21.9423 107.849 23.079C107.353 24.2157 106.95 25.4143 106.64 26.675C106.413 27.6463 106.144 28.3077 105.834 28.659C105.545 28.9897 105.08 29.155 104.439 29.155ZM120.779 29.155C119.849 29.155 119.084 28.7313 118.485 27.884C117.906 27.016 117.617 25.9413 117.617 24.66C117.617 23.11 117.72 21.6943 117.927 20.413C118.134 19.111 118.475 17.7367 118.95 16.29C119.157 15.67 119.446 15.2257 119.818 14.957C120.19 14.6883 120.779 14.554 121.585 14.554C122.04 14.554 122.35 14.6263 122.515 14.771C122.701 14.9157 122.794 15.1327 122.794 15.422C122.794 15.5873 122.68 16.1453 122.453 17.096C122.246 17.8607 122.081 18.553 121.957 19.173C121.544 21.343 121.337 22.7897 121.337 23.513C121.337 23.947 121.389 24.257 121.492 24.443C121.595 24.6083 121.761 24.691 121.988 24.691C122.298 24.691 122.68 24.381 123.135 23.761C123.61 23.141 124.106 22.2007 124.623 20.94C125.16 19.6793 125.677 18.1293 126.173 16.29C126.338 15.67 126.586 15.2257 126.917 14.957C127.268 14.6883 127.785 14.554 128.467 14.554C128.942 14.554 129.273 14.616 129.459 14.74C129.645 14.8433 129.738 15.05 129.738 15.36C129.738 15.8767 129.48 17.2923 128.963 19.607C128.384 22.2523 128.095 23.885 128.095 24.505C128.095 24.8977 128.178 25.2077 128.343 25.435C128.508 25.6417 128.725 25.745 128.994 25.745C129.407 25.745 129.893 25.497 130.451 25.001C131.03 24.4843 131.794 23.6577 132.745 22.521C132.993 22.2317 133.272 22.087 133.582 22.087C133.851 22.087 134.057 22.211 134.202 22.459C134.367 22.707 134.45 23.048 134.45 23.482C134.45 24.3087 134.254 24.9493 133.861 25.404C132.972 26.4993 132.011 27.3983 130.978 28.101C129.965 28.8037 128.808 29.155 127.506 29.155C126.514 29.155 125.78 28.7727 125.305 28.008C124.85 27.2433 124.623 26.1687 124.623 24.784C124.272 26.1893 123.745 27.2743 123.042 28.039C122.339 28.783 121.585 29.155 120.779 29.155ZM156.477 26.644C155.547 27.2847 154.059 28.2147 152.013 29.434C151.745 30.674 151.486 31.7487 151.238 32.658C150.722 34.518 149.957 35.944 148.944 36.936C147.932 37.928 146.774 38.424 145.472 38.424C144.604 38.424 143.881 38.1347 143.302 37.556C142.744 36.9773 142.465 36.254 142.465 35.386C142.465 34.642 142.641 33.929 142.992 33.247C143.364 32.5857 144.026 31.8417 144.976 31.015C145.948 30.1883 147.312 29.248 149.068 28.194V28.132C148.469 28.0287 147.994 27.6877 147.642 27.109C147.312 26.5097 147.146 25.7347 147.146 24.784C146.816 26.1273 146.299 27.1917 145.596 27.977C144.914 28.7623 144.15 29.155 143.302 29.155C142.393 29.155 141.639 28.7313 141.039 27.884C140.44 27.0367 140.14 25.962 140.14 24.66C140.14 23.1307 140.244 21.7253 140.45 20.444C140.657 19.142 140.998 17.7573 141.473 16.29C141.68 15.6493 141.969 15.205 142.341 14.957C142.734 14.6883 143.323 14.554 144.108 14.554C144.542 14.554 144.852 14.6263 145.038 14.771C145.224 14.895 145.317 15.112 145.317 15.422C145.317 15.5873 145.204 16.1453 144.976 17.096C144.77 17.8607 144.604 18.553 144.48 19.173C144.067 21.3637 143.86 22.8103 143.86 23.513C143.86 23.9263 143.912 24.226 144.015 24.412C144.119 24.598 144.284 24.691 144.511 24.691C145.069 24.691 145.741 23.9057 146.526 22.335C147.312 20.7643 148.035 18.7493 148.696 16.29C148.862 15.6493 149.12 15.205 149.471 14.957C149.823 14.6883 150.329 14.554 150.99 14.554C151.466 14.554 151.796 14.616 151.982 14.74C152.168 14.8433 152.261 15.05 152.261 15.36C152.261 15.856 152.003 17.22 151.486 19.452C151.259 20.382 151.052 21.3017 150.866 22.211C150.68 23.1203 150.587 23.7713 150.587 24.164C150.587 24.5567 150.639 24.8357 150.742 25.001C150.846 25.1457 151.001 25.218 151.207 25.218C151.29 25.218 151.383 25.2077 151.486 25.187C151.59 25.1663 151.693 25.156 151.796 25.156C151.941 25.156 152.044 25.2283 152.106 25.373C152.189 25.5177 152.22 25.807 152.199 26.241C153.522 25.4143 154.721 24.598 155.795 23.792C156.023 23.6267 156.26 23.544 156.508 23.544C156.777 23.544 156.984 23.668 157.128 23.916C157.294 24.164 157.376 24.4947 157.376 24.908C157.376 25.342 157.314 25.683 157.19 25.931C157.066 26.1583 156.829 26.396 156.477 26.644ZM146.123 35.51C146.661 35.51 147.177 35.1173 147.673 34.332C148.169 33.5467 148.51 32.503 148.696 31.201C146.547 32.4823 145.472 33.6913 145.472 34.828C145.472 35.2827 145.689 35.51 146.123 35.51ZM172.163 19.483C172.431 19.483 172.638 19.6173 172.783 19.886C172.927 20.1547 173 20.4957 173 20.909C173 21.4257 172.927 21.8287 172.783 22.118C172.638 22.3867 172.411 22.5727 172.101 22.676C170.861 23.11 169.497 23.358 168.009 23.42C167.595 25.1353 166.81 26.52 165.653 27.574C164.516 28.628 163.255 29.155 161.871 29.155C159.783 29.155 158.264 28.3593 157.314 26.768C156.363 25.1767 155.888 22.8723 155.888 19.855C155.888 17.189 156.218 14.2957 156.88 11.175C157.541 8.03366 158.502 5.36766 159.763 3.177C161.044 0.965665 162.563 -0.140002 164.32 -0.140002C165.27 -0.140002 166.035 0.273332 166.614 1.1C167.192 1.906 167.482 2.96 167.482 4.262C167.482 5.95667 167.161 7.641 166.521 9.315C165.88 10.989 164.816 12.7457 163.328 14.585C164.712 14.6883 165.839 15.267 166.707 16.321C167.575 17.3543 168.091 18.6357 168.257 20.165C169.228 20.103 170.385 19.8963 171.729 19.545C171.853 19.5037 171.997 19.483 172.163 19.483ZM163.607 2.929C163.193 2.929 162.739 3.549 162.243 4.789C161.767 6.00833 161.323 7.672 160.91 9.78C160.496 11.888 160.186 14.1923 159.98 16.693C161.344 14.1923 162.429 11.9913 163.235 10.09C164.061 8.168 164.475 6.463 164.475 4.975C164.475 4.31367 164.392 3.80733 164.227 3.456C164.082 3.10467 163.875 2.929 163.607 2.929ZM161.995 25.869C162.635 25.869 163.204 25.6003 163.7 25.063C164.196 24.5257 164.526 23.7507 164.692 22.738C164.051 22.304 163.555 21.7357 163.204 21.033C162.873 20.3303 162.708 19.5863 162.708 18.801C162.708 18.5117 162.749 18.119 162.832 17.623H162.739C161.891 17.623 161.178 18.0467 160.6 18.894C160.042 19.7207 159.763 20.8367 159.763 22.242C159.763 23.42 159.98 24.319 160.414 24.939C160.868 25.559 161.395 25.869 161.995 25.869ZM184.149 22.087C184.418 22.087 184.624 22.211 184.769 22.459C184.934 22.707 185.017 23.048 185.017 23.482C185.017 24.3087 184.821 24.9493 184.428 25.404C183.663 26.334 182.578 27.1917 181.173 27.977C179.788 28.7623 178.3 29.155 176.709 29.155C174.539 29.155 172.855 28.566 171.656 27.388C170.457 26.21 169.858 24.598 169.858 22.552C169.858 21.126 170.158 19.8033 170.757 18.584C171.356 17.344 172.183 16.3623 173.237 15.639C174.312 14.9157 175.521 14.554 176.864 14.554C178.063 14.554 179.024 14.9157 179.747 15.639C180.47 16.3417 180.832 17.3027 180.832 18.522C180.832 19.948 180.315 21.1777 179.282 22.211C178.269 23.2237 176.544 24.0297 174.105 24.629C174.622 25.5797 175.603 26.055 177.05 26.055C177.98 26.055 179.034 25.7347 180.212 25.094C181.411 24.4327 182.444 23.575 183.312 22.521C183.56 22.2317 183.839 22.087 184.149 22.087ZM176.337 17.592C175.572 17.592 174.921 18.0363 174.384 18.925C173.867 19.8137 173.609 20.8883 173.609 22.149V22.211C174.828 21.9217 175.789 21.4877 176.492 20.909C177.195 20.3303 177.546 19.6587 177.546 18.894C177.546 18.5013 177.432 18.1913 177.205 17.964C176.998 17.716 176.709 17.592 176.337 17.592ZM184.694 29.155C183.909 29.155 183.351 28.7417 183.02 27.915C182.71 27.0883 182.555 25.7657 182.555 23.947C182.555 21.2603 182.937 18.708 183.702 16.29C183.888 15.6907 184.188 15.2567 184.601 14.988C185.035 14.6987 185.634 14.554 186.399 14.554C186.812 14.554 187.102 14.6057 187.267 14.709C187.432 14.8123 187.515 15.0087 187.515 15.298C187.515 15.6287 187.36 16.3727 187.05 17.53C186.843 18.3567 186.678 19.08 186.554 19.7C186.43 20.2993 186.327 21.0537 186.244 21.963C186.802 20.351 187.463 18.987 188.228 17.871C189.013 16.755 189.809 15.9283 190.615 15.391C191.442 14.833 192.217 14.554 192.94 14.554C193.663 14.554 194.17 14.7193 194.459 15.05C194.769 15.3807 194.924 15.887 194.924 16.569C194.924 17.2303 194.728 18.429 194.335 20.165C194.17 20.909 194.056 21.467 193.994 21.839C195.027 19.297 196.174 17.4473 197.435 16.29C198.696 15.1327 199.874 14.554 200.969 14.554C202.312 14.554 202.984 15.2257 202.984 16.569C202.984 17.375 202.757 18.832 202.302 20.94C201.909 22.738 201.713 23.9263 201.713 24.505C201.713 25.3317 202.013 25.745 202.612 25.745C203.025 25.745 203.511 25.497 204.069 25.001C204.648 24.4843 205.412 23.6577 206.363 22.521C206.611 22.2317 206.89 22.087 207.2 22.087C207.469 22.087 207.675 22.211 207.82 22.459C207.985 22.707 208.068 23.048 208.068 23.482C208.068 24.3087 207.872 24.9493 207.479 25.404C206.59 26.4993 205.629 27.3983 204.596 28.101C203.583 28.8037 202.426 29.155 201.124 29.155C200.07 29.155 199.274 28.8553 198.737 28.256C198.2 27.636 197.931 26.7473 197.931 25.59C197.931 25.0113 198.076 23.978 198.365 22.49C198.634 21.188 198.768 20.289 198.768 19.793C198.768 19.4623 198.654 19.297 198.427 19.297C198.158 19.297 197.776 19.6483 197.28 20.351C196.784 21.033 196.288 21.9423 195.792 23.079C195.296 24.2157 194.893 25.4143 194.583 26.675C194.356 27.667 194.087 28.3283 193.777 28.659C193.488 28.9897 193.012 29.155 192.351 29.155C191.669 29.155 191.152 28.8347 190.801 28.194C190.47 27.5327 190.305 26.737 190.305 25.807C190.305 25.0217 190.408 23.885 190.615 22.397C190.78 21.0743 190.863 20.2063 190.863 19.793C190.863 19.4623 190.749 19.297 190.522 19.297C190.212 19.297 189.819 19.669 189.344 20.413C188.869 21.157 188.404 22.1077 187.949 23.265C187.515 24.4223 187.164 25.559 186.895 26.675C186.668 27.6463 186.399 28.3077 186.089 28.659C185.8 28.9897 185.335 29.155 184.694 29.155ZM228.966 22.087C229.235 22.087 229.442 22.211 229.586 22.459C229.752 22.707 229.834 23.048 229.834 23.482C229.834 24.3087 229.638 24.9493 229.245 25.404C227.199 27.9047 225.288 29.155 223.51 29.155C222.167 29.155 221.185 28.6797 220.565 27.729C219.966 26.7783 219.666 25.5177 219.666 23.947V23.482C218.53 25.1973 217.269 26.5717 215.884 27.605C214.52 28.6383 213.084 29.155 211.575 29.155C209.777 29.155 208.341 28.6177 207.266 27.543C206.212 26.4683 205.685 25.0837 205.685 23.389C205.685 22.149 205.778 20.971 205.964 19.855C206.15 18.739 206.44 17.5507 206.832 16.29C207.018 15.6907 207.318 15.2567 207.731 14.988C208.165 14.6987 208.785 14.554 209.591 14.554C210.521 14.554 210.986 14.802 210.986 15.298C210.986 15.5047 210.831 16.2487 210.521 17.53L210.304 18.46L209.87 20.32C210.428 19.762 211.09 19.3073 211.854 18.956C212.64 18.584 213.435 18.398 214.241 18.398C215.192 18.398 215.977 18.6873 216.597 19.266C217.217 19.824 217.569 20.6197 217.651 21.653C218.457 20.6817 219.119 19.7723 219.635 18.925C220.152 18.057 220.596 17.158 220.968 16.228C221.154 15.608 221.392 15.174 221.681 14.926C221.991 14.678 222.487 14.554 223.169 14.554C224.223 14.554 224.75 14.9053 224.75 15.608C224.75 16.1247 224.554 17.3233 224.161 19.204C223.665 21.4773 223.417 23.017 223.417 23.823C223.417 24.443 223.5 24.9183 223.665 25.249C223.831 25.5797 224.11 25.745 224.502 25.745C224.874 25.745 225.339 25.4867 225.897 24.97C226.455 24.4533 227.199 23.637 228.129 22.521C228.377 22.2317 228.656 22.087 228.966 22.087ZM214.458 23.296C214.458 22.2007 213.869 21.653 212.691 21.653C211.989 21.653 211.369 21.8493 210.831 22.242C210.315 22.6347 209.901 23.0893 209.591 23.606C209.674 24.3707 209.891 24.939 210.242 25.311C210.594 25.683 211.131 25.869 211.854 25.869C212.681 25.869 213.322 25.6417 213.776 25.187C214.231 24.7323 214.458 24.102 214.458 23.296ZM235.129 21.746C234.716 21.746 234.375 21.653 234.106 21.467C233.837 21.281 233.703 20.9917 233.703 20.599L233.734 20.351C234.085 18.0363 234.561 15.4013 235.16 12.446C235.759 9.49067 236.317 6.93833 236.834 4.789C237.165 3.46633 238.064 2.805 239.531 2.805C240.854 2.805 241.515 3.22867 241.515 4.076C241.515 4.262 241.484 4.46867 241.422 4.696C240.885 6.88667 240.172 9.54233 239.283 12.663C238.394 15.763 237.547 18.46 236.741 20.754C236.514 21.4153 235.976 21.746 235.129 21.746ZM233.951 29.155C233.042 29.155 232.349 28.907 231.874 28.411C231.419 27.915 231.192 27.264 231.192 26.458C231.192 25.528 231.45 24.784 231.967 24.226C232.504 23.668 233.248 23.389 234.199 23.389C235.108 23.389 235.79 23.6163 236.245 24.071C236.72 24.505 236.958 25.156 236.958 26.024C236.958 26.9747 236.689 27.7393 236.152 28.318C235.615 28.876 234.881 29.155 233.951 29.155Z" fill="#F07591"/>
</g>
<defs>
<clipPath id="clip0_664_409">
<rect width="241" height="61" fill="white"/>
</clipPath>
</defs>
</svg>
